<?xml version="1.0" standalone="no"?>
<!DOCTYPE svg PUBLIC "-//W3C//DTD SVG 20010904//EN"
 "http://www.w3.org/TR/2001/REC-SVG-20010904/DTD/svg10.dtd">
<svg version="1.0" xmlns="http://www.w3.org/2000/svg"
 width="1000.000000pt" height="1000.000000pt" viewBox="0 0 1000.000000 1000.000000"
 preserveAspectRatio="xMidYMid meet">
<metadata>
Created by potrace 1.14, written by Peter Selinger 2001-2017
</metadata>
<g transform="translate(0.000000,1000.000000) scale(0.100000,-0.100000)"
fill="#000000" stroke="none">
<path d="M3889 6396 c-2 -2 -27 -6 -55 -10 -121 -14 -283 -82 -388 -162 -190
-146 -277 -337 -271 -589 4 -124 8 -166 20 -185 3 -5 9 -22 11 -37 3 -15 9
-32 13 -38 4 -5 11 -18 15 -29 5 -14 2 -17 -9 -12 -9 3 -13 2 -10 -4 3 -6 12
-10 20 -10 21 0 28 -19 14 -36 -10 -12 -9 -13 3 -9 9 4 19 -4 28 -20 7 -14 17
-25 22 -25 4 0 8 -6 8 -14 0 -8 26 -40 58 -72 31 -31 56 -61 54 -66 -1 -5 2
-7 7 -3 6 3 21 -5 33 -17 13 -13 26 -22 29 -21 3 1 20 -11 37 -26 17 -16 33
-26 36 -23 3 3 6 0 6 -6 0 -6 -9 -14 -21 -17 -11 -4 -18 -9 -15 -12 3 -3 17 2
31 11 21 14 25 14 25 2 0 -9 6 -13 14 -10 8 3 17 0 22 -7 5 -8 3 -10 -6 -4 -9
6 -11 4 -6 -4 5 -7 14 -10 21 -8 7 3 22 -12 34 -34 22 -38 57 -66 69 -55 3 3
0 6 -7 6 -7 0 -9 4 -6 10 4 6 -1 7 -11 3 -13 -5 -15 -3 -9 7 5 8 4 11 -1 7 -5
-3 -17 8 -26 24 -20 34 -8 39 16 7 9 -13 14 -17 10 -10 -5 11 -2 12 12 4 49
-26 160 -77 169 -78 18 -2 65 -23 65 -29 0 -4 -5 -3 -12 1 -7 4 -8 3 -4 -4 4
-7 1 -12 -8 -12 -9 0 -16 -5 -16 -11 0 -11 15 -4 43 19 13 12 17 12 17 2 0 -7
3 -11 6 -7 8 8 28 -12 37 -36 4 -10 11 -15 17 -12 5 3 10 -1 10 -9 0 -19 16
-21 26 -4 4 7 3 8 -4 4 -12 -7 -17 6 -6 17 6 5 70 -26 88 -44 11 -10 -23 -41
-36 -33 -13 8 -19 -16 -8 -33 9 -15 10 -14 4 7 -3 14 -3 22 1 18 4 -4 20 2 36
12 27 20 28 20 41 2 7 -10 21 -21 31 -25 10 -4 24 -21 32 -39 8 -18 15 -28 15
-23 1 17 31 -59 37 -95 8 -47 7 -178 -1 -214 -17 -73 -79 -145 -146 -169 -20
-7 -79 -12 -140 -11 -83 1 -117 5 -161 23 -129 50 -195 171 -201 369 l-1 42
-269 0 c-207 0 -268 -3 -269 -12 -5 -48 7 -186 19 -218 5 -14 9 -37 8 -52 -1
-14 1 -25 5 -22 4 2 14 -18 24 -44 10 -26 24 -58 32 -71 13 -19 13 -25 2 -32
-12 -7 -12 -10 0 -21 10 -10 12 -10 7 0 -4 6 -2 12 3 12 15 0 63 -79 56 -90
-3 -5 0 -7 8 -4 8 3 18 0 23 -7 4 -7 3 -10 -2 -6 -6 3 -16 1 -24 -5 -12 -8
-11 -9 3 -4 11 4 27 -3 41 -17 12 -12 52 -46 89 -76 37 -30 67 -59 67 -64 0
-6 3 -7 6 -4 4 3 15 2 26 -4 21 -11 16 -24 -9 -24 -9 0 -17 -6 -19 -13 -1 -7
0 -8 3 -2 8 17 23 11 17 -7 -4 -12 0 -10 14 6 l19 24 57 -23 c34 -15 56 -30
56 -39 0 -10 3 -12 8 -6 9 13 17 13 62 -3 19 -6 45 -13 58 -15 13 -2 28 -10
33 -18 5 -8 9 -9 9 -3 0 7 10 9 25 6 14 -2 22 -9 18 -15 -4 -6 -1 -7 8 -1 18
11 59 13 59 2 0 -8 -15 -12 -37 -9 -6 1 -15 -4 -19 -10 -4 -8 -3 -9 4 -5 7 4
18 4 24 0 9 -6 5 -10 -11 -14 -25 -6 -42 -30 -21 -30 6 0 9 4 5 9 -3 5 5 11
17 13 13 2 21 6 18 10 -7 10 31 37 53 38 14 0 17 -5 13 -22 -3 -13 -3 -17 0
-10 3 6 10 10 15 7 5 -4 6 0 3 8 -4 11 11 14 73 15 99 2 163 8 186 17 14 6 16
3 11 -11 -6 -16 -3 -15 15 4 12 12 26 20 31 17 5 -3 11 -1 15 5 8 13 35 13 35
-1 0 -5 -5 -7 -11 -3 -18 11 7 -30 28 -47 17 -13 17 -13 0 7 -13 16 -15 27 -8
45 9 22 16 12 12 -18 -2 -17 13 -23 29 -11 13 8 12 9 -2 5 -13 -5 -16 0 -14
19 4 32 15 42 26 24 8 -13 10 -13 10 1 0 29 31 31 72 4 21 -14 38 -22 38 -18
0 5 5 1 11 -7 7 -10 9 -11 7 -2 -2 8 -6 12 -8 10 -3 -1 -20 8 -38 20 -30 22
-35 42 -11 42 6 0 8 -4 4 -9 -5 -10 25 -31 42 -31 4 1 -2 6 -15 13 -21 12 -21
14 -6 32 13 17 15 17 10 3 -3 -10 -1 -18 4 -18 6 0 10 8 10 18 0 9 17 28 37
42 21 14 47 35 59 48 12 12 27 22 34 22 7 0 11 3 7 6 -3 3 3 16 15 28 29 31
78 103 78 115 0 15 13 14 30 -1 8 -7 6 -3 -4 10 -14 15 -15 22 -6 22 7 0 10 3
7 6 -3 4 -2 15 4 26 11 20 17 42 26 91 5 24 8 26 22 15 14 -12 14 -11 2 4 -9
12 -11 30 -7 54 4 19 7 88 7 152 -3 399 -208 651 -681 836 -252 99 -411 215
-442 321 -8 30 -10 53 -5 56 5 4 3 9 -4 11 -12 5 -12 9 -1 28 8 12 9 19 3 15
-6 -3 -11 -1 -11 4 0 6 5 11 11 11 8 0 7 6 -2 17 -11 13 -11 17 -1 20 6 3 12
13 12 22 0 10 3 21 8 25 7 8 8 12 11 39 0 8 20 34 43 58 22 24 38 39 35 34 -8
-14 31 -17 39 -3 5 7 1 9 -9 5 -10 -3 -17 -3 -17 2 0 11 80 42 91 35 5 -3 9
-12 9 -20 0 -8 5 -14 10 -14 7 0 7 6 0 19 -5 11 -10 21 -10 24 0 3 107 2 120
-2 3 -1 -8 -10 -25 -21 -25 -17 -26 -19 -7 -17 11 0 19 3 17 6 -3 2 5 11 17
19 16 12 23 12 26 4 2 -7 8 -12 13 -12 6 0 7 4 4 10 -3 5 9 3 27 -5 19 -8 31
-20 29 -27 -2 -7 -4 -25 -5 -40 -1 -25 -9 -28 -56 -18 -3 0 6 7 20 15 29 17
19 20 -11 4 -19 -10 -19 -12 -5 -28 9 -10 13 -21 9 -24 -3 -4 -1 -7 6 -7 8 0
11 7 7 15 -4 10 1 14 17 12 17 -1 21 3 19 17 -3 17 -2 18 12 7 9 -8 16 -10 16
-6 0 4 -7 13 -15 19 -10 7 -12 16 -5 26 7 12 15 8 43 -20 19 -19 45 -55 58
-78 22 -41 23 -45 6 -57 -16 -11 -16 -13 -2 -19 9 -3 13 -2 10 4 -3 6 -1 10 5
10 8 0 10 -9 6 -26 -4 -16 -3 -23 3 -20 9 6 12 -26 11 -101 0 -13 6 -22 13
-20 6 1 11 -4 10 -10 -2 -7 2 -13 7 -13 6 0 10 8 10 18 1 15 2 15 16 -3 14
-18 13 -21 -8 -27 -21 -6 -22 -6 -2 -7 28 -1 35 8 23 30 -14 27 0 23 23 -6 25
-32 51 -32 77 1 l20 25 15 -28 c8 -15 15 -24 16 -20 0 5 -4 16 -9 25 -8 15 0
17 88 17 53 -1 101 -4 108 -8 6 -4 13 -1 15 5 3 8 12 0 21 -17 9 -16 16 -26
17 -22 0 5 -4 16 -9 25 -8 16 -4 18 44 16 l54 -1 -5 46 c-10 107 -15 139 -30
201 -73 291 -298 497 -619 566 -32 6 -310 15 -316 10z m541 -830 c1 19 1 19
17 -1 14 -18 15 -18 9 -2 -3 11 -2 17 5 15 15 -5 13 -21 -5 -33 -18 -11 -48 3
-54 26 -2 8 3 6 12 -5 16 -20 16 -20 16 0z m-380 -815 c0 -4 -7 -8 -15 -8 -8
0 -15 6 -15 13 0 8 6 11 15 8 8 -4 15 -9 15 -13z"/>
<path d="M1552 6208 c-27 -90 -75 -242 -105 -338 -48 -152 -108 -345 -112
-360 -1 -3 -4 -12 -7 -20 -3 -8 -10 -31 -16 -50 -6 -19 -31 -100 -56 -180
-195 -626 -358 -1150 -416 -1335 l-68 -220 27 -3 c14 -2 29 -9 33 -15 5 -8 8
-8 8 -1 0 6 20 11 44 12 36 0 48 -4 60 -23 9 -13 12 -25 8 -28 -4 -2 -2 -2 5
-1 23 6 19 -21 -6 -38 -14 -10 -22 -18 -18 -18 4 0 19 7 33 16 23 16 24 18 10
40 -9 12 -12 24 -8 27 4 2 2 2 -5 1 -6 -2 -14 3 -16 10 -4 10 35 13 190 12
148 -1 197 2 205 12 6 7 18 10 27 7 11 -3 10 -1 -3 10 -15 11 -16 17 -8 28 7
8 9 17 6 20 -4 3 -3 14 1 24 10 22 16 44 17 61 1 6 7 12 15 12 7 0 13 5 13 11
0 5 -5 7 -10 4 -8 -5 -8 23 0 45 2 3 2 9 1 14 -1 5 4 6 11 3 8 -3 14 2 14 13
0 10 -3 17 -7 14 -7 -4 5 55 18 86 3 8 5 18 5 23 -1 4 5 24 13 43 8 20 15 45
15 56 0 10 4 17 9 13 5 -3 13 -1 16 5 5 8 11 8 20 0 15 -12 39 -4 30 10 -3 4
7 11 20 14 14 4 23 11 20 16 -3 6 1 10 10 10 10 0 14 -5 9 -12 -6 -10 -4 -10
7 0 15 14 39 16 39 3 0 -5 -9 -11 -21 -14 -12 -3 -18 -10 -14 -16 3 -6 2 -11
-4 -11 -5 0 -12 5 -14 10 -3 6 -4 5 -3 -2 2 -7 9 -13 17 -13 8 0 13 5 12 11
-1 7 9 15 23 18 14 4 22 11 19 16 -3 6 1 10 10 10 9 0 13 -5 10 -11 -4 -6 3
-5 15 3 18 10 24 10 27 1 3 -7 9 -13 14 -13 6 0 7 5 4 10 -3 6 1 10 10 10 9 0
13 -5 10 -11 -4 -6 3 -5 15 3 18 10 24 10 27 1 3 -7 9 -13 14 -13 6 0 7 5 4
10 -3 6 1 10 10 10 9 0 13 -5 10 -11 -4 -6 3 -5 15 3 18 10 24 10 27 1 3 -7 9
-13 14 -13 6 0 8 4 4 9 -3 6 16 9 45 8 35 0 50 -5 50 -15 0 -7 -4 -11 -9 -7
-11 6 -36 -33 -27 -43 3 -3 6 0 6 7 0 7 4 9 10 6 6 -4 7 1 3 11 -4 12 -3 15 6
10 8 -5 14 -1 18 13 3 12 10 21 15 21 5 0 6 -6 2 -12 -6 -10 -4 -10 7 0 18 16
29 15 29 -4 0 -8 -4 -13 -9 -10 -5 3 -20 -3 -32 -15 l-24 -20 26 15 c14 9 29
13 33 9 4 -4 9 3 13 15 3 12 10 22 15 22 5 0 6 -6 2 -12 -6 -10 -4 -10 7 0 18
17 27 15 32 -5 4 -15 5 -15 6 -2 1 21 51 23 51 2 0 -11 -5 -11 -22 -3 -22 11
-22 10 -4 -4 21 -17 36 -13 36 10 0 23 14 16 26 -13 19 -45 23 -72 11 -76 -5
-1 -11 -11 -13 -20 -1 -9 2 -15 7 -11 5 3 7 10 4 15 -4 5 2 9 11 9 10 0 15 -3
12 -6 -3 -3 -2 -21 4 -41 5 -19 11 -45 14 -56 2 -11 6 -22 8 -25 3 -2 0 -14
-6 -26 -10 -19 -9 -20 5 -8 14 12 16 11 16 -5 0 -10 7 -45 15 -77 8 -33 12
-64 9 -69 -3 -6 -1 -7 5 -3 7 4 12 1 12 -9 0 -10 -5 -13 -12 -9 -7 4 -10 4 -6
-1 4 -4 2 -15 -4 -24 -10 -13 -10 -14 2 -3 19 16 30 15 30 -4 0 -9 -5 -13 -12
-9 -7 4 -5 0 5 -8 10 -9 18 -30 19 -51 1 -23 4 -32 9 -24 10 15 269 21 269 6
0 -5 -4 -7 -9 -4 -5 4 -8 -1 -7 -10 2 -16 36 -42 36 -28 0 3 7 1 15 -6 13 -11
18 -11 28 0 9 10 9 11 0 6 -7 -4 -19 -4 -25 0 -9 6 -5 10 12 15 23 6 23 7 3 8
-12 1 -24 -3 -28 -9 -3 -5 -12 -7 -20 -4 -8 4 -12 10 -9 15 3 5 10 6 16 3 7
-5 9 -1 5 9 -7 20 -3 21 25 6 11 -6 18 -7 15 -2 -4 6 14 10 39 9 33 0 43 -3
40 -13 -3 -7 -1 -13 4 -13 6 0 10 6 10 13 0 7 11 14 25 15 18 1 29 -5 36 -21
9 -21 9 -21 6 -1 -4 19 0 22 35 22 22 1 42 3 45 6 3 2 -25 101 -62 218 -37
117 -75 240 -85 273 -10 33 -46 148 -80 255 -34 107 -78 245 -97 305 -19 61
-45 144 -58 185 -25 81 -112 357 -150 480 -13 41 -62 199 -110 350 -48 151
-109 348 -137 438 l-51 162 -247 0 -247 0 -51 -162z m312 -644 c3 -13 7 -28
11 -34 8 -13 18 -60 17 -82 0 -10 3 -18 7 -18 5 0 11 -11 13 -25 3 -14 1 -22
-4 -18 -6 3 -3 -5 5 -18 9 -13 17 -37 20 -54 2 -16 7 -37 10 -45 4 -8 8 -24
10 -35 2 -11 8 -28 12 -39 4 -10 8 -35 9 -56 1 -21 4 -36 9 -33 7 4 11 -11 8
-34 -1 -6 3 -14 9 -18 5 -3 10 -13 10 -21 0 -8 -4 -13 -8 -10 -5 3 -9 -1 -9
-8 0 -8 5 -12 12 -10 6 3 16 -14 22 -36 9 -36 9 -41 -6 -36 -11 4 -10 2 3 -9
11 -8 16 -15 10 -15 -5 0 -2 -5 6 -10 13 -8 13 -14 -3 -42 l-19 -33 23 20 22
20 -7 -28 c-5 -21 -4 -27 5 -21 8 5 10 2 6 -8 -3 -9 -3 -19 1 -23 4 -4 8 -11
8 -16 1 -5 2 -10 4 -11 1 -2 4 -15 6 -30 l5 -27 -237 0 c-131 0 -241 2 -245 5
-5 2 -6 11 -3 19 4 8 11 12 17 8 6 -4 7 -1 2 7 -4 7 -2 16 6 21 9 5 10 9 2 9
-6 0 -10 8 -8 18 2 9 4 20 4 25 1 4 9 8 19 8 14 1 15 2 1 6 -15 4 -15 8 -2 46
8 23 15 50 16 59 1 10 8 18 17 19 11 0 11 2 2 6 -10 4 -9 9 5 20 10 8 12 12 6
8 -8 -4 -13 0 -13 9 0 26 12 46 24 39 7 -5 7 -2 -1 8 -8 9 -9 20 -3 29 6 8 10
25 10 38 0 12 5 22 12 22 6 0 8 3 5 7 -4 3 1 16 10 27 17 20 17 20 1 7 -26
-20 -22 0 5 24 12 11 18 17 13 13 -16 -12 -28 -9 -20 4 5 7 9 21 9 31 1 10 8
23 16 28 10 6 11 9 1 9 -9 0 -10 5 -3 19 6 10 7 21 4 25 -3 3 -1 6 6 6 7 0 11
6 8 13 -2 6 3 21 12 31 9 11 10 16 4 12 -7 -4 -13 -3 -13 2 0 16 13 22 26 11
8 -7 14 -6 20 2 4 7 3 9 -3 6 -22 -14 -32 17 -20 61 6 23 14 42 18 42 5 0 6 9
4 21 -3 16 0 19 12 15 14 -6 14 -4 2 10 -9 12 -10 18 -3 21 6 2 9 16 7 31 -3
26 -3 26 7 4 5 -13 12 -34 14 -48z m-354 -1326 c0 -4 5 -8 11 -8 5 0 8 4 5 8
-2 4 6 9 20 10 29 2 32 -14 3 -21 -12 -3 -18 -10 -14 -16 10 -17 -8 -12 -32 8
-27 22 -28 28 -8 28 8 0 15 -4 15 -9z m-10 -22 c0 -11 -19 -15 -25 -6 -3 5 1
10 9 10 9 0 16 -2 16 -4z"/>
<path d="M1850 5523 c5 -2 10 -9 10 -14 0 -6 -4 -8 -8 -5 -4 2 -14 0 -22 -5
-11 -7 -8 -8 10 -6 26 4 35 28 12 33 -7 1 -8 0 -2 -3z"/>
<path d="M1813 5452 c0 -12 5 -22 9 -22 11 0 10 12 -2 30 -7 12 -9 10 -7 -8z"/>
<path d="M1860 5406 c0 -2 8 -10 18 -17 15 -13 16 -12 3 4 -13 16 -21 21 -21
13z"/>
<path d="M1770 5296 c0 -2 8 -10 18 -17 15 -13 16 -12 3 4 -13 16 -21 21 -21
13z"/>
<path d="M1950 5191 c0 -7 -5 -9 -12 -5 -7 5 -8 3 -3 -5 5 -9 10 -10 18 -2 6
6 8 14 4 18 -4 3 -7 1 -7 -6z"/>
<path d="M1745 5140 c-3 -6 1 -7 9 -4 18 7 21 14 7 14 -6 0 -13 -4 -16 -10z"/>
<path d="M1730 5099 c0 -5 5 -7 10 -4 6 3 10 8 10 11 0 2 -4 4 -10 4 -5 0 -10
-5 -10 -11z"/>
<path d="M1956 5078 c3 -5 10 -6 15 -3 13 9 11 12 -6 12 -8 0 -12 -4 -9 -9z"/>
<path d="M1710 5058 c0 -4 4 -8 9 -8 6 0 12 4 15 8 3 5 -1 9 -9 9 -8 0 -15 -4
-15 -9z"/>
<path d="M1993 4915 c0 -8 4 -12 9 -9 5 3 6 10 3 15 -9 13 -12 11 -12 -6z"/>
<path d="M1640 4806 c0 -2 8 -10 18 -17 15 -13 16 -12 3 4 -13 16 -21 21 -21
13z"/>
<path d="M5856 6353 c-7 -25 -65 -212 -221 -713 -75 -239 -138 -442 -140 -450
-2 -8 -33 -109 -70 -225 -36 -115 -86 -273 -110 -350 -84 -271 -134 -432 -206
-660 -39 -126 -72 -236 -73 -244 -1 -12 47 -14 286 -15 157 -1 286 1 285 4 -4
21 18 93 30 97 9 4 11 8 4 12 -12 8 5 89 22 106 7 7 8 5 4 -6 -3 -9 0 -16 9
-16 12 0 12 4 1 21 -15 22 -12 50 4 40 5 -3 9 0 9 5 0 6 -4 11 -10 11 -5 0
-10 5 -10 11 0 5 3 8 8 6 4 -3 8 11 10 31 1 19 7 41 13 49 6 7 8 13 3 13 -5 0
0 7 10 15 11 8 14 15 8 15 -17 0 -15 20 6 43 9 11 11 17 5 13 -7 -4 -13 -3
-13 3 0 6 9 15 20 21 11 6 20 8 20 5 0 -3 10 1 23 10 13 8 26 12 29 9 4 -3 11
3 17 14 11 21 61 28 61 8 0 -7 3 -8 8 -1 13 20 49 14 61 -8 l11 -22 -6 23 c-3
12 -1 22 5 22 6 0 11 -4 11 -10 0 -5 5 -10 11 -10 5 0 8 4 5 9 -3 5 6 9 19 9
14 0 25 -4 25 -9 0 -5 5 -9 11 -9 5 0 8 4 5 9 -3 5 6 9 19 9 14 0 25 -4 25 -9
0 -5 5 -9 11 -9 5 0 7 5 3 11 -4 7 -1 10 7 7 8 -3 14 -10 14 -17 0 -13 24 -31
40 -30 6 0 1 5 -10 12 -22 13 -31 37 -15 37 5 0 10 -4 10 -10 0 -5 5 -10 11
-10 5 0 7 5 3 11 -4 7 -1 10 7 7 8 -3 13 -14 11 -24 -2 -15 -1 -16 7 -4 5 8 8
17 6 21 -3 3 6 7 19 7 18 0 23 -5 19 -17 -4 -14 -3 -14 6 -1 11 16 91 24 91 9
0 -5 5 -9 11 -9 5 0 7 5 4 10 -3 6 -2 10 3 10 20 0 21 -29 1 -35 -11 -4 -18
-9 -16 -12 10 -9 46 17 42 30 -4 8 7 13 30 14 19 1 35 -2 35 -8 0 -5 5 -9 11
-9 5 0 7 6 3 13 -5 9 -4 9 6 0 7 -6 14 -24 17 -40 6 -44 9 -57 15 -73 29 -73
28 -87 -5 -81 -5 1 -6 -3 -2 -8 3 -6 12 -8 19 -5 16 6 29 -33 12 -40 -6 -2 -4
-5 4 -5 14 -1 20 -20 23 -73 1 -10 5 -18 10 -18 5 0 7 -7 3 -15 -3 -8 0 -15 7
-15 8 0 6 -4 -3 -10 -11 -7 -11 -10 -2 -10 7 0 10 -4 7 -10 -3 -5 -1 -10 4
-10 6 0 11 -13 11 -29 0 -17 5 -33 11 -37 8 -4 7 -9 -2 -15 -10 -6 -11 -9 -1
-9 6 0 12 -5 12 -11 0 -5 -6 -7 -12 -3 -7 4 -10 4 -6 -1 4 -4 2 -15 -5 -24
-11 -14 -10 -14 6 -2 12 9 21 11 25 5 4 -6 47 -10 102 -8 52 1 103 -3 114 -8
10 -6 16 -6 13 -1 -3 4 71 9 164 9 93 1 172 4 175 7 4 3 -24 102 -61 219 -36
117 -91 292 -121 388 -31 96 -77 245 -104 330 -27 85 -76 241 -108 345 -33
105 -84 264 -112 355 -28 91 -80 255 -115 365 -35 110 -84 268 -110 350 -25
83 -58 187 -73 233 l-26 82 -247 0 c-227 0 -248 -1 -253 -17z m265 -754 c8
-15 8 -19 0 -15 -6 4 -11 2 -11 -3 0 -6 4 -11 8 -11 10 0 34 -89 27 -101 -4
-5 -1 -9 4 -9 6 0 11 -5 11 -11 0 -5 -6 -7 -12 -3 -7 4 -6 -1 3 -12 22 -26 33
-57 16 -48 -9 6 -9 5 0 -8 7 -8 10 -18 6 -21 -3 -4 -2 -7 4 -7 5 0 10 -6 11
-12 2 -23 7 -43 16 -57 6 -10 5 -12 -2 -7 -7 4 -12 2 -12 -4 0 -6 -5 -8 -12
-4 -7 4 -8 3 -4 -4 4 -6 13 -9 21 -5 8 3 15 0 15 -6 0 -6 0 -12 0 -13 0 -2 7
-24 15 -50 11 -36 11 -48 2 -48 -8 0 -7 -4 2 -9 15 -10 43 -98 44 -138 1 -13
5 -23 9 -23 4 0 7 -3 6 -7 -1 -5 4 -25 11 -46 7 -21 10 -44 7 -52 -3 -8 -2
-15 3 -15 7 0 41 -118 41 -142 0 -4 -108 -7 -240 -8 l-240 -1 0 26 c0 14 5 25
12 25 6 0 8 3 5 7 -4 3 -1 13 6 21 8 11 8 14 0 9 -8 -5 -9 1 -4 20 4 15 14 29
22 31 12 5 12 3 -1 -14 -11 -15 -11 -16 0 -7 20 18 22 43 2 36 -12 -5 -14 -2
-8 13 4 10 12 40 18 67 6 26 14 47 17 47 3 0 7 17 9 38 1 20 7 39 12 40 6 2 7
8 4 13 -3 6 -2 18 2 27 11 25 13 32 24 85 5 26 14 56 19 66 6 10 8 21 5 24 -3
3 -2 12 2 19 9 13 14 33 16 56 1 7 8 10 16 7 11 -4 12 -2 5 7 -5 7 -8 19 -7
26 1 6 2 21 3 32 1 13 9 20 24 21 16 1 18 2 5 6 -21 5 -22 16 -6 46 12 22 18
48 19 79 0 10 5 20 10 23 5 4 7 11 4 16 -4 5 -4 9 -1 9 3 0 10 -10 17 -21z
m-298 -1366 c-3 -8 -8 -12 -11 -9 -2 3 -14 0 -26 -6 -32 -18 -59 -21 -49 -6 4
7 8 16 9 21 1 4 2 9 3 10 0 2 19 4 40 4 29 0 38 -4 34 -14z"/>
<path d="M6097 5503 c-3 -5 0 -17 4 -28 9 -19 9 -19 5 2 -2 14 2 23 13 26 14
4 14 5 -1 6 -9 0 -19 -2 -21 -6z"/>
<path d="M6056 5402 c-3 -4 4 -9 15 -9 23 -2 25 3 4 10 -8 4 -16 3 -19 -1z"/>
<path d="M6036 5273 c-6 -14 -5 -15 5 -6 7 7 10 15 7 18 -3 3 -9 -2 -12 -12z"/>
<path d="M6006 5198 c3 -5 10 -6 15 -3 13 9 11 12 -6 12 -8 0 -12 -4 -9 -9z"/>
<path d="M6000 5140 c-9 -6 -10 -10 -3 -10 6 0 15 5 18 10 8 12 4 12 -15 0z"/>
<path d="M5975 5080 c3 -5 8 -10 11 -10 2 0 4 5 4 10 0 6 -5 10 -11 10 -5 0
-7 -4 -4 -10z"/>
<path d="M6230 5063 c0 -6 8 -17 18 -24 16 -13 16 -13 2 6 -8 11 -16 22 -17
24 -2 2 -3 0 -3 -6z"/>
<path d="M5951 4933 c7 -12 15 -20 18 -17 3 2 -3 12 -13 22 -17 16 -18 16 -5
-5z"/>
<path d="M6267 4919 c7 -7 15 -10 18 -7 3 3 -2 9 -12 12 -14 6 -15 5 -6 -5z"/>
<path d="M5920 4879 c0 -5 5 -7 10 -4 6 3 10 8 10 11 0 2 -4 4 -10 4 -5 0 -10
-5 -10 -11z"/>
<path d="M6276 4878 c3 -5 10 -6 15 -3 13 9 11 12 -6 12 -8 0 -12 -4 -9 -9z"/>
<path d="M6273 4825 c0 -8 4 -12 9 -9 5 3 6 10 3 15 -9 13 -12 11 -12 -6z"/>
<path d="M7444 6289 c1 -44 -2 -83 -6 -86 -5 -2 -5 -10 -1 -16 10 -17 10 -40
-1 -54 -5 -7 -5 -13 0 -13 5 0 9 -16 9 -35 0 -19 -4 -35 -9 -35 -5 0 -3 -7 4
-15 8 -10 9 -15 2 -15 -6 0 -9 -6 -7 -12 11 -29 12 -78 2 -78 -7 0 -7 -4 1
-12 7 -7 8 -17 1 -30 -6 -12 -6 -18 0 -18 7 0 7 -9 1 -25 -5 -13 -6 -27 -1
-29 9 -6 8 -36 -2 -53 -4 -6 -3 -14 2 -17 8 -6 6 -60 -4 -76 -3 -5 -1 -11 3
-14 10 -6 9 -36 -1 -53 -4 -6 -4 -14 0 -16 10 -6 8 -100 -1 -116 -4 -6 -3 -11
2 -11 10 0 8 -42 -3 -59 -3 -6 -3 -11 2 -11 4 0 8 -13 8 -30 0 -16 -4 -30 -9
-30 -5 0 -3 -7 4 -15 7 -9 8 -15 2 -15 -6 0 -7 -13 -2 -34 4 -18 3 -40 -1 -49
-6 -10 -5 -18 1 -22 8 -5 7 -11 -1 -21 -6 -8 -8 -14 -3 -14 5 0 9 -16 9 -35 0
-19 -4 -35 -9 -35 -5 0 -3 -7 4 -15 8 -10 9 -15 2 -15 -6 0 -9 -6 -7 -12 11
-29 12 -78 2 -78 -7 0 -7 -4 1 -12 7 -7 8 -17 1 -30 -5 -10 -6 -18 -2 -18 4 0
8 -13 8 -30 0 -16 -4 -30 -9 -30 -5 0 -3 -7 4 -15 7 -9 8 -15 2 -15 -6 0 -7
-13 -2 -34 4 -18 3 -40 -1 -49 -6 -10 -5 -18 1 -22 8 -5 7 -11 -1 -21 -6 -8
-8 -14 -3 -14 5 0 9 -16 9 -35 0 -19 -4 -35 -9 -35 -5 0 -3 -7 4 -15 8 -10 9
-15 1 -15 -7 0 -8 -8 -1 -24 5 -13 6 -26 3 -30 -5 -5 -8 -65 -3 -76 7 -16 5
-67 -3 -77 -5 -7 -6 -13 -1 -13 5 0 9 -16 9 -35 0 -19 -4 -35 -9 -35 -5 0 -3
-7 4 -15 8 -10 9 -15 1 -15 -7 0 -8 -8 -1 -25 7 -17 6 -25 -1 -25 -8 0 -7 -5
1 -15 7 -9 8 -15 2 -15 -6 0 -7 -13 -2 -34 4 -18 3 -40 -1 -49 -6 -10 -5 -18
1 -22 8 -5 7 -11 -1 -21 -6 -8 -8 -14 -3 -14 5 0 9 -16 9 -35 0 -19 -4 -35 -9
-35 -5 0 -3 -7 4 -15 8 -10 9 -15 1 -15 -7 0 -8 -8 -1 -24 5 -13 6 -26 3 -30
-5 -5 -8 -64 -3 -76 7 -19 5 -50 -3 -50 -6 0 -6 -5 0 -12 5 -7 8 -22 8 -34 -2
-17 3 -20 22 -18 20 2 23 -1 18 -19 -4 -12 -3 -17 2 -11 10 13 47 -5 51 -26 2
-8 10 -22 19 -30 13 -13 13 -11 -1 11 -9 14 -13 28 -10 32 4 4 -5 11 -20 16
-14 6 -26 16 -26 22 0 8 6 7 17 -2 9 -8 14 -9 11 -4 -4 7 61 11 197 11 125 0
201 -4 198 -10 -8 -12 -13 -59 -6 -52 3 3 11 -1 17 -10 10 -13 14 -13 31 8
l20 23 -20 -17 c-20 -16 -21 -16 -33 2 -16 26 -15 35 2 21 10 -8 16 -9 21 -1
4 6 1 9 -7 8 -7 -2 -13 4 -13 12 0 8 6 16 13 16 6 1 18 2 25 3 9 1 12 92 12
421 0 327 3 421 13 425 15 5 16 25 1 25 -5 0 -7 -4 -4 -10 3 -5 2 -10 -3 -10
-5 0 -9 14 -9 30 0 17 4 30 9 30 5 0 6 -4 3 -10 -4 -6 1 -7 11 -3 12 4 15 3
10 -5 -7 -11 62 -48 71 -38 3 2 -11 10 -31 17 -19 7 -32 17 -29 21 3 5 12 7
20 4 8 -3 11 -1 8 4 -4 6 -12 10 -18 9 -26 -3 -38 2 -31 13 4 6 3 8 -4 4 -6
-3 -13 -3 -16 2 -2 4 4 9 15 9 10 1 19 -4 19 -10 0 -8 3 -9 8 -1 9 13 145 13
154 -1 5 -6 8 -7 8 0 0 7 42 11 110 11 61 0 110 -3 110 -8 0 -5 -4 -6 -10 -3
-5 3 -10 1 -10 -4 0 -16 20 -13 26 3 8 21 32 27 38 9 5 -11 2 -14 -9 -9 -9 3
-13 2 -10 -4 3 -6 1 -10 -6 -10 -7 0 -10 -3 -7 -6 9 -8 49 15 43 25 -8 14 38
21 54 8 10 -8 13 -8 8 -1 -8 13 56 29 73 19 6 -3 10 -2 10 3 0 12 38 22 56 15
8 -3 11 -9 8 -14 -3 -5 1 -6 8 -4 9 4 14 -2 14 -14 0 -12 -7 -19 -18 -18 -10
1 -18 9 -18 19 0 23 -15 31 -29 14 -9 -11 -9 -16 0 -22 7 -4 9 -3 5 4 -3 6 -2
13 4 17 5 3 10 -2 10 -13 0 -10 10 -27 23 -38 12 -10 18 -15 14 -9 -4 5 9 19
30 32 39 23 39 32 1 12 -18 -10 -20 -9 -15 5 4 10 1 19 -8 22 -23 9 -18 24 9
24 13 0 26 5 28 12 3 7 21 12 41 11 20 -1 37 3 37 9 0 5 -5 6 -12 2 -7 -4 -8
-3 -4 5 4 6 16 9 26 6 10 -3 22 0 26 6 5 8 2 10 -7 5 -8 -4 -6 -1 5 6 10 7 38
28 61 46 24 17 46 32 48 32 3 0 2 -29 -2 -50 -1 -3 -6 2 -11 10 -6 9 -10 10
-10 3 0 -21 15 -22 40 0 14 11 18 18 9 14 -13 -4 -16 0 -15 19 0 13 3 24 6 24
3 0 16 10 30 21 14 11 18 17 10 13 -12 -6 -13 -4 -3 6 16 18 28 6 17 -17 -8
-17 -10 -28 -13 -47 0 -6 -8 -1 -17 10 -14 18 -15 18 -4 -4 7 -13 14 -21 17
-18 3 3 15 1 27 -5 18 -9 19 -8 6 3 -8 7 -16 22 -18 33 -3 20 -2 20 13 1 8
-11 15 -15 15 -10 0 6 -3 14 -6 17 -10 9 -13 67 -5 67 4 0 14 11 21 25 7 14
19 25 26 25 7 0 16 5 20 12 5 8 2 9 -11 4 -15 -5 -16 -4 -5 9 7 8 17 12 23 8
5 -3 7 -1 3 5 -7 12 13 62 26 62 4 0 8 11 8 24 0 14 5 28 12 32 7 5 8 3 3 -6
-5 -9 -4 -11 4 -6 9 6 9 11 -1 24 -11 13 -11 15 3 10 9 -4 16 -1 16 8 0 7 -5
10 -11 7 -7 -4 -6 -1 1 8 12 15 13 18 13 55 0 14 3 23 8 21 4 -3 8 7 8 21 1
15 5 59 9 97 26 260 -48 549 -181 700 -14 17 -36 41 -48 55 -64 77 -205 166
-322 204 -123 40 -191 45 -715 45 l-506 1 1 -81z m898 -383 c5 -8 8 -7 8 1 0
7 11 10 28 7 79 -12 92 -16 92 -25 0 -6 5 -7 10 -4 6 3 10 1 10 -4 0 -6 3 -10
8 -9 18 4 40 -15 35 -29 -4 -11 -2 -14 5 -9 12 7 52 -31 52 -51 0 -7 5 -13 11
-13 5 0 7 -4 4 -10 -3 -5 -2 -10 4 -10 11 0 26 -38 23 -57 -2 -7 2 -13 8 -13
5 0 9 -3 9 -7 -1 -5 -1 -10 1 -13 1 -3 3 -15 6 -27 2 -12 5 -27 6 -32 2 -5 -1
-9 -7 -9 -5 0 -9 3 -8 7 1 4 -5 8 -13 8 -12 0 -11 -4 2 -18 9 -10 20 -16 24
-14 12 7 17 -74 6 -85 -7 -7 -6 -10 1 -10 6 0 10 -8 8 -17 -2 -10 -6 -40 -9
-68 -12 -132 -73 -229 -176 -278 -41 -20 -64 -22 -275 -25 l-230 -4 0 394 c0
216 4 399 9 407 6 10 5 12 -2 7 -7 -4 -10 -2 -7 6 7 18 346 21 357 4z"/>
<path d="M8015 5900 c-8 -13 3 -30 21 -30 18 0 18 14 0 29 -10 8 -16 9 -21 1z
m20 -10 c3 -5 1 -10 -4 -10 -6 0 -11 5 -11 10 0 6 2 10 4 10 3 0 8 -4 11 -10z"/>
<path d="M8057 5899 c7 -7 15 -10 18 -7 3 3 -2 9 -12 12 -14 6 -15 5 -6 -5z"/>
<path d="M8090 5900 c0 -5 5 -10 11 -10 5 0 7 5 4 10 -3 6 -8 10 -11 10 -2 0
-4 -4 -4 -10z"/>
<path d="M8128 5891 c-7 -9 -8 -13 -4 -9 5 4 14 0 21 -9 9 -13 14 -13 20 -3 5
8 4 11 -2 7 -6 -4 -14 0 -17 9 -4 12 -1 14 13 9 11 -3 22 -2 24 2 10 16 -43
10 -55 -6z"/>
<path d="M8210 5901 c0 -5 7 -12 16 -15 14 -5 15 -4 4 9 -14 17 -20 19 -20 6z"/>
<path d="M8255 5900 c-8 -14 3 -30 21 -30 8 0 14 -4 14 -10 0 -5 5 -10 10 -10
6 0 6 7 -2 19 -6 10 -18 17 -25 14 -9 -4 -11 0 -7 11 7 18 -1 22 -11 6z"/>
<path d="M8304 5894 c9 -6 13 -14 9 -18 -4 -4 1 -4 11 0 14 5 17 4 12 -5 -5
-8 -1 -14 13 -18 12 -3 21 -9 21 -14 0 -5 5 -9 10 -9 21 0 9 20 -15 26 -14 3
-22 10 -19 16 3 5 13 7 21 4 8 -3 11 -1 8 4 -4 6 -12 10 -18 9 -23 -3 -38 1
-33 9 2 4 -4 8 -15 8 -18 0 -18 -2 -5 -12z"/>
<path d="M8417 5886 c-4 -9 -11 -14 -17 -11 -5 3 -10 1 -10 -4 0 -14 17 -14
26 0 5 8 9 8 14 -1 5 -8 9 -7 13 5 4 9 3 14 -2 10 -5 -3 -11 0 -13 7 -3 7 -7
5 -11 -6z"/>
<path d="M8194 5881 c3 -5 -1 -12 -10 -15 -9 -4 -14 -9 -11 -12 3 -3 15 1 27
9 18 12 19 15 5 21 -9 3 -14 2 -11 -3z"/>
<path d="M8060 5865 c-9 -10 -9 -15 -1 -15 6 0 11 4 11 9 0 5 8 12 18 14 14 4
14 5 1 6 -9 0 -22 -6 -29 -14z"/>
<path d="M7995 5860 c3 -5 8 -10 11 -10 2 0 4 5 4 10 0 6 -5 10 -11 10 -5 0
-7 -4 -4 -10z"/>
<path d="M8110 5860 c0 -5 5 -10 10 -10 6 0 10 5 10 10 0 6 -4 10 -10 10 -5 0
-10 -4 -10 -10z"/>
<path d="M8230 5860 c0 -5 5 -10 10 -10 6 0 10 5 10 10 0 6 -4 10 -10 10 -5 0
-10 -4 -10 -10z"/>
<path d="M8456 5859 c6 -11 41 -12 47 -1 3 4 -8 7 -24 8 -15 1 -26 -3 -23 -7z"/>
<path d="M8010 5839 c-12 -8 -10 -9 7 -4 19 5 22 3 17 -12 -5 -14 -4 -15 4 -3
19 25 0 38 -28 19z"/>
<path d="M8067 5832 c-19 -21 -22 -42 -7 -42 5 0 6 8 3 18 -6 15 -5 16 13 2
17 -14 18 -13 7 1 -12 15 -8 29 9 29 4 0 7 -5 6 -12 -4 -17 42 -18 49 -2 3 8
10 11 16 7 6 -3 7 -1 3 5 -10 16 -26 15 -26 -1 0 -7 -9 -13 -20 -14 -11 -1
-19 3 -17 9 4 19 -19 19 -36 0z"/>
<path d="M8200 5835 c0 -8 -6 -14 -12 -12 -7 1 -13 -7 -14 -18 -1 -15 0 -16 3
-2 3 9 8 15 13 12 5 -3 14 4 20 15 7 13 7 20 0 20 -5 0 -10 -7 -10 -15z"/>
<path d="M8265 5840 c3 -5 1 -10 -4 -10 -6 0 -11 -5 -11 -11 0 -8 6 -7 17 2
15 12 16 12 10 -3 -3 -10 -2 -20 2 -22 5 -3 7 5 6 17 -4 36 -4 37 -16 37 -5 0
-7 -4 -4 -10z"/>
<path d="M8310 5840 c-13 -8 -12 -10 3 -10 9 0 17 5 17 10 0 12 -1 12 -20 0z"/>
<path d="M8410 5840 c0 -5 5 -10 10 -10 6 0 10 5 10 10 0 6 -4 10 -10 10 -5 0
-10 -4 -10 -10z"/>
<path d="M8440 5844 c0 -13 18 -39 24 -34 2 3 -2 14 -10 24 -8 11 -14 16 -14
10z"/>
<path d="M8340 5825 c-7 -9 -8 -15 -2 -15 5 0 12 7 16 15 3 8 4 15 2 15 -2 0
-9 -7 -16 -15z"/>
<path d="M8495 5820 c-3 -5 -3 -10 2 -11 4 -1 -3 -5 -17 -10 l-25 -8 25 2 c14
1 24 8 23 15 -5 23 18 12 28 -14 5 -15 12 -24 16 -21 7 8 -24 57 -37 57 -5 0
-12 -4 -15 -10z"/>
<path d="M8002 5807 c10 -8 14 -18 10 -22 -4 -5 -1 -5 6 -1 17 10 15 14 -10
26 -21 10 -21 10 -6 -3z"/>
<path d="M8390 5810 c0 -5 5 -10 10 -10 6 0 10 5 10 10 0 6 -4 10 -10 10 -5 0
-10 -4 -10 -10z"/>
<path d="M8433 5798 c1 -16 5 -28 9 -28 10 0 9 9 -2 35 -8 17 -8 16 -7 -7z"/>
<path d="M8550 5810 c0 -5 5 -10 11 -10 5 0 7 5 4 10 -3 6 -8 10 -11 10 -2 0
-4 -4 -4 -10z"/>
<path d="M8145 5799 c-4 -6 -5 -12 -2 -15 2 -3 7 2 10 11 7 17 1 20 -8 4z"/>
<path d="M8199 5793 c-13 -17 -13 -17 6 -3 11 8 22 16 24 17 2 2 0 3 -6 3 -6
0 -17 -8 -24 -17z"/>
<path d="M8300 5806 c0 -2 7 -7 16 -10 8 -3 12 -2 9 4 -6 10 -25 14 -25 6z"/>
<path d="M8229 5777 c6 -8 7 -18 3 -22 -4 -5 -1 -5 6 -1 10 6 10 11 1 22 -6 8
-14 14 -16 14 -3 0 0 -6 6 -13z"/>
<path d="M8513 5780 c2 -8 0 -23 -5 -32 -5 -10 -6 -18 -4 -18 13 0 24 37 15
51 -9 12 -10 12 -6 -1z"/>
<path d="M8095 5760 c-3 -5 -1 -10 4 -10 6 0 11 5 11 10 0 6 -2 10 -4 10 -3 0
-8 -4 -11 -10z"/>
<path d="M8475 5761 c-3 -5 0 -13 6 -17 7 -4 9 -3 5 4 -3 5 0 13 6 15 9 4 10
6 1 6 -6 1 -14 -3 -18 -8z"/>
<path d="M8555 5760 c-3 -5 -2 -10 4 -10 5 0 13 5 16 10 3 6 2 10 -4 10 -5 0
-13 -4 -16 -10z"/>
<path d="M8574 5737 c-3 -9 -4 -22 -1 -29 3 -7 6 -3 6 10 1 14 5 20 12 17 6
-4 8 -14 4 -24 -5 -13 -4 -14 6 -3 11 10 10 15 -4 29 -15 15 -17 15 -23 0z"/>
<path d="M8526 5722 c-3 -5 1 -9 9 -9 8 0 12 4 9 9 -3 4 -7 8 -9 8 -2 0 -6 -4
-9 -8z"/>
<path d="M8574 5682 c4 -3 14 -7 22 -8 9 -1 13 0 10 4 -4 3 -14 7 -22 8 -9 1
-13 0 -10 -4z"/>
<path d="M8615 5660 c-7 -11 22 -26 32 -16 4 3 -1 6 -11 6 -9 0 -14 5 -11 10
3 6 4 10 1 10 -3 0 -8 -5 -11 -10z"/>
<path d="M3996 5939 c2 -4 -2 -10 -8 -12 -7 -3 -8 -6 -2 -6 5 -1 18 5 28 12
16 12 16 13 -3 13 -11 0 -18 -3 -15 -7z"/>
<path d="M3885 5920 c-3 -5 -1 -10 4 -10 6 0 11 5 11 10 0 6 -2 10 -4 10 -3 0
-8 -4 -11 -10z"/>
<path d="M4076 5922 c2 -3 -4 -11 -14 -18 -19 -15 -5 -19 18 -4 10 6 12 12 4
18 -6 5 -9 7 -8 4z"/>
<path d="M4115 5919 c-4 -6 -5 -12 -2 -15 2 -3 7 2 10 11 7 17 1 20 -8 4z"/>
<path d="M4137 5913 c-4 -3 -7 -11 -7 -17 0 -6 5 -5 12 2 6 6 9 14 7 17 -3 3
-9 2 -12 -2z"/>
<path d="M3910 5900 c0 -5 5 -10 10 -10 6 0 10 5 10 10 0 6 -4 10 -10 10 -5 0
-10 -4 -10 -10z"/>
<path d="M3970 5900 c0 -5 -6 -10 -14 -10 -21 0 -30 -20 -16 -33 10 -9 12 -8
6 7 -5 15 -2 17 18 12 14 -3 28 -1 31 4 7 12 25 4 25 -11 0 -6 -4 -8 -9 -4
-15 9 -25 -15 -12 -28 9 -9 10 -7 5 7 -5 13 -4 17 4 12 12 -7 38 32 28 42 -3
3 -6 0 -6 -8 0 -10 -3 -10 -14 -1 -10 8 -16 9 -21 1 -3 -5 -11 -10 -17 -10 -7
0 -6 6 2 15 9 10 9 15 1 15 -6 0 -11 -4 -11 -10z"/>
<path d="M3866 5885 c-10 -8 -25 -11 -34 -8 -15 4 -15 3 -2 -6 11 -7 21 -6 36
4 21 14 34 11 34 -7 0 -5 -5 -6 -10 -3 -6 3 -13 -1 -16 -9 -3 -9 -10 -13 -15
-10 -5 3 -6 -2 -2 -12 5 -14 8 -13 19 7 7 13 16 23 20 21 14 -6 15 14 2 26 -9
7 -18 7 -32 -3z"/>
<path d="M4075 5880 c-13 -6 -15 -9 -5 -9 8 0 22 4 30 9 18 12 2 12 -25 0z"/>
<path d="M3792 5850 c-7 -11 -8 -20 -3 -20 9 0 24 30 18 36 -1 2 -8 -6 -15
-16z"/>
<path d="M4037 5855 c-4 -8 -3 -16 1 -19 4 -3 9 4 9 15 2 23 -3 25 -10 4z"/>
<path d="M3960 5848 c0 -9 7 -19 16 -22 15 -6 15 -4 3 11 -7 10 -15 20 -16 22
-2 2 -3 -3 -3 -11z"/>
<path d="M4196 5845 c-4 -11 -4 -16 0 -13 3 4 15 -3 26 -15 11 -12 17 -17 14
-10 -4 6 -3 13 1 16 5 2 2 2 -6 0 -8 -2 -11 2 -7 12 3 9 2 14 -3 10 -5 -3 -11
0 -13 7 -3 7 -7 4 -12 -7z"/>
<path d="M3815 5840 c-3 -5 -3 -10 2 -10 4 -1 -3 -7 -17 -15 -14 -8 -20 -14
-14 -15 5 0 19 7 30 15 10 8 15 15 9 15 -5 0 -3 5 5 10 9 6 10 10 3 10 -6 0
-15 -4 -18 -10z"/>
<path d="M3911 5847 c2 -1 13 -9 24 -17 19 -14 19 -14 6 3 -7 9 -18 17 -24 17
-6 0 -8 -1 -6 -3z"/>
<path d="M4064 5831 c0 -11 4 -17 8 -15 4 3 8 12 8 20 0 8 -4 14 -8 14 -4 0
-8 -9 -8 -19z"/>
<path d="M3836 5813 c-6 -14 -5 -15 5 -6 7 7 10 15 7 18 -3 3 -9 -2 -12 -12z"/>
<path d="M3910 5821 c0 -6 4 -13 10 -16 6 -3 7 1 4 9 -7 18 -14 21 -14 7z"/>
<path d="M4027 5819 c7 -7 15 -10 18 -7 3 3 -2 9 -12 12 -14 6 -15 5 -6 -5z"/>
<path d="M4164 5819 c-5 -8 -3 -9 6 -4 10 6 12 4 7 -8 -3 -9 -3 -18 1 -21 4
-3 8 4 9 14 2 23 -13 35 -23 19z"/>
<path d="M3855 5799 c-3 -4 2 -6 10 -5 21 3 28 13 10 13 -9 0 -18 -4 -20 -8z"/>
<path d="M3947 5799 c7 -7 15 -10 18 -7 3 3 -2 9 -12 12 -14 6 -15 5 -6 -5z"/>
<path d="M4201 5798 c-1 -21 15 -32 25 -17 4 7 3 9 -4 5 -6 -3 -13 2 -15 11
-4 16 -5 16 -6 1z"/>
<path d="M3773 5777 c-3 -5 0 -14 6 -20 9 -9 10 -7 5 7 -4 12 -4 17 2 13 6 -3
16 -2 24 3 11 7 9 9 -8 7 -13 -1 -26 -5 -29 -10z"/>
<path d="M4270 5771 c0 -7 -4 -9 -10 -6 -5 3 -10 1 -10 -4 0 -6 4 -11 9 -11
13 0 25 20 17 27 -3 4 -6 1 -6 -6z"/>
<path d="M3810 5759 c0 -5 5 -7 10 -4 6 3 10 8 10 11 0 2 -4 4 -10 4 -5 0 -10
-5 -10 -11z"/>
<path d="M3760 5740 c8 -5 20 -10 25 -10 6 0 3 5 -5 10 -8 5 -19 10 -25 10 -5
0 -3 -5 5 -10z"/>
<path d="M4216 5727 c3 -10 9 -15 12 -12 3 3 0 11 -7 18 -10 9 -11 8 -5 -6z"/>
<path d="M3735 5720 c-4 -6 1 -7 12 -3 16 6 17 5 3 -13 -14 -18 -14 -18 2 -5
10 7 15 17 12 22 -7 12 -21 11 -29 -1z"/>
<path d="M4273 5625 c0 -8 4 -12 9 -9 5 3 6 10 3 15 -9 13 -12 11 -12 -6z"/>
<path d="M4589 5558 c14 -19 32 -15 30 5 0 8 -2 8 -6 -1 -4 -10 -8 -10 -21 0
-15 12 -16 11 -3 -4z"/>
<path d="M4636 5554 c-3 -9 -1 -23 4 -32 9 -14 10 -12 4 8 -6 22 -5 23 10 11
20 -16 22 -5 2 14 -12 12 -15 12 -20 -1z"/>
<path d="M4695 5560 c-3 -5 -1 -10 4 -10 6 0 11 5 11 10 0 6 -2 10 -4 10 -3 0
-8 -4 -11 -10z"/>
<path d="M4558 5547 c22 -13 21 -28 -1 -23 -7 2 -9 1 -4 -1 11 -7 8 -23 -4
-20 -6 1 -13 -4 -14 -11 -2 -7 -1 -8 2 -2 2 5 9 8 14 4 5 -3 12 2 15 10 3 9
10 14 14 11 5 -3 7 2 6 11 -3 16 -24 34 -41 33 -5 0 0 -5 13 -12z"/>
<path d="M4788 5553 c7 -3 16 -2 19 1 4 3 -2 6 -13 5 -11 0 -14 -3 -6 -6z"/>
<path d="M4493 5536 c6 -14 3 -17 -8 -12 -9 3 -14 2 -10 -3 3 -5 0 -11 -7 -13
-14 -5 -21 -45 -9 -53 5 -3 13 0 17 6 4 7 3 9 -4 5 -6 -4 -10 1 -9 13 0 11 11
24 24 30 25 12 30 26 11 37 -8 5 -9 2 -5 -10z"/>
<path d="M4731 5543 c0 -4 4 -17 9 -28 8 -19 9 -19 9 2 1 12 -3 25 -9 28 -5 3
-10 3 -9 -2z"/>
<path d="M4681 5528 c-1 -9 8 -23 19 -31 11 -8 17 -17 13 -21 -4 -4 1 -4 12 0
11 5 14 9 7 12 -7 2 -10 8 -7 13 4 5 -2 6 -12 2 -15 -5 -16 -3 -5 8 6 7 12 18
12 24 0 5 -6 1 -12 -10 -11 -19 -11 -19 -19 0 -6 17 -8 17 -8 3z"/>
<path d="M4610 5523 c5 -2 10 -9 10 -14 0 -6 -3 -8 -8 -5 -11 6 -47 -22 -38
-31 4 -4 11 -1 16 7 5 8 15 15 22 15 17 0 17 28 0 31 -7 1 -8 0 -2 -3z"/>
<path d="M4775 5519 c-9 -14 0 -22 28 -26 17 -2 19 -1 7 6 -8 5 -18 7 -22 5
-4 -3 -8 -1 -8 5 0 5 6 12 13 14 9 4 9 6 0 6 -6 1 -15 -4 -18 -10z"/>
<path d="M4515 5509 c-4 -6 -5 -12 -2 -15 2 -3 7 2 10 11 7 17 1 20 -8 4z"/>
<path d="M4379 5508 c0 -2 -2 -14 -5 -28 -3 -18 -2 -21 5 -10 5 8 8 17 5 21
-2 4 6 10 18 12 l23 4 -22 2 c-13 0 -23 0 -24 -1z"/>
<path d="M4654 5495 c-10 -26 3 -44 27 -38 17 5 20 3 14 -7 -5 -9 -4 -11 4 -6
17 11 2 29 -20 23 -14 -4 -19 0 -19 15 0 18 2 19 18 7 15 -13 16 -12 3 4 -16
21 -20 21 -27 2z"/>
<path d="M4430 5491 c0 -7 -4 -9 -10 -6 -6 4 -7 -1 -3 -11 6 -15 7 -15 15 1 6
9 7 19 4 22 -3 4 -6 1 -6 -6z"/>
<path d="M4750 5475 c0 -8 2 -15 4 -15 2 0 6 7 10 15 3 8 1 15 -4 15 -6 0 -10
-7 -10 -15z"/>
<path d="M4510 5471 c0 -7 -5 -9 -12 -5 -7 5 -8 3 -3 -5 5 -9 10 -10 18 -2 6
6 8 14 4 18 -4 3 -7 1 -7 -6z"/>
<path d="M4550 5469 c0 -5 -6 -7 -12 -3 -7 4 -9 3 -5 -1 13 -15 36 -14 30 1
-6 17 -13 18 -13 3z"/>
<path d="M4790 5469 c0 -5 5 -7 10 -4 6 3 10 8 10 11 0 2 -4 4 -10 4 -5 0 -10
-5 -10 -11z"/>
<path d="M4390 5460 c0 -5 5 -10 10 -10 6 0 10 5 10 10 0 6 -4 10 -10 10 -5 0
-10 -4 -10 -10z"/>
<path d="M4630 5465 c0 -5 5 -17 10 -25 5 -8 10 -10 10 -5 0 6 -5 17 -10 25
-5 8 -10 11 -10 5z"/>
<path d="M4820 5466 c0 -2 8 -10 18 -17 15 -13 16 -12 3 4 -13 16 -21 21 -21
13z"/>
<path d="M4593 5443 c1 -15 5 -19 13 -13 6 6 15 6 19 2 5 -4 5 -1 1 6 -4 7
-11 10 -16 7 -4 -3 -10 1 -13 7 -3 7 -4 3 -4 -9z"/>
<path d="M4345 5440 c-3 -6 1 -7 9 -4 18 7 21 14 7 14 -6 0 -13 -4 -16 -10z"/>
<path d="M4735 5440 c3 -5 8 -10 11 -10 2 0 4 5 4 10 0 6 -5 10 -11 10 -5 0
-7 -4 -4 -10z"/>
<path d="M4775 5440 c3 -5 8 -10 11 -10 2 0 4 5 4 10 0 6 -5 10 -11 10 -5 0
-7 -4 -4 -10z"/>
<path d="M4365 5420 c-3 -6 1 -7 9 -4 18 7 21 14 7 14 -6 0 -13 -4 -16 -10z"/>
<path d="M4630 5399 c0 -5 5 -7 10 -4 6 3 10 8 10 11 0 2 -4 4 -10 4 -5 0 -10
-5 -10 -11z"/>
<path d="M3226 5298 c3 -5 10 -6 15 -3 13 9 11 12 -6 12 -8 0 -12 -4 -9 -9z"/>
<path d="M3216 5242 c-3 -4 4 -9 15 -9 23 -2 25 3 4 10 -8 4 -16 3 -19 -1z"/>
<path d="M3275 5215 c-3 -8 -7 -21 -9 -29 -3 -10 1 -13 15 -11 15 3 19 0 15
-11 -3 -8 -2 -13 3 -9 5 3 11 0 13 -7 3 -7 7 -5 11 6 4 9 3 15 -2 12 -5 -3
-12 1 -15 10 -3 8 -10 12 -16 9 -5 -3 -10 3 -10 15 0 13 4 19 12 14 7 -4 8 -3
4 4 -10 16 -16 15 -21 -3z"/>
<path d="M9216 5222 c-3 -5 1 -9 9 -9 8 0 12 4 9 9 -3 4 -7 8 -9 8 -2 0 -6 -4
-9 -8z"/>
<path d="M3342 5130 c7 -11 16 -20 21 -20 4 0 5 -5 1 -12 -5 -7 -3 -8 5 -4 18
11 10 -26 -9 -41 -8 -6 -19 -9 -24 -6 -5 4 -6 1 -2 -5 10 -17 54 14 52 36 -1
18 -39 72 -50 72 -3 0 -1 -9 6 -20z"/>
<path d="M3275 5120 c3 -5 8 -10 11 -10 2 0 4 5 4 10 0 6 -5 10 -11 10 -5 0
-7 -4 -4 -10z"/>
<path d="M3315 5101 c-3 -5 0 -13 6 -17 8 -5 9 -3 4 6 -6 10 -4 12 9 7 10 -4
15 -3 11 3 -8 13 -22 13 -30 1z"/>
<path d="M3335 5070 c-3 -6 1 -7 9 -4 18 7 21 14 7 14 -6 0 -13 -4 -16 -10z"/>
<path d="M9148 5058 c-9 -5 -6 -7 9 -5 12 2 25 6 28 8 8 9 -23 6 -37 -3z"/>
<path d="M3415 5050 c-4 -6 -11 -7 -17 -4 -6 4 -8 2 -4 -4 3 -5 0 -13 -6 -16
-7 -3 -4 -4 7 -3 15 1 20 -4 19 -20 -1 -19 2 -21 17 -12 11 5 19 15 18 22 0 9
-2 9 -6 0 -2 -7 -10 -13 -15 -13 -6 0 -8 3 -5 7 4 3 2 12 -4 19 -8 10 -8 15 2
18 41 13 43 14 22 15 -12 1 -25 -4 -28 -9z"/>
<path d="M3490 5020 c0 -5 5 -10 11 -10 5 0 7 5 4 10 -3 6 -8 10 -11 10 -2 0
-4 -4 -4 -10z"/>
<path d="M3471 5008 c-1 -10 -5 -18 -11 -18 -5 0 -10 -5 -10 -11 0 -8 6 -7 16
2 15 12 16 11 10 -11 -6 -20 -5 -22 4 -8 6 10 7 24 1 40 -7 17 -10 18 -10 6z"/>
<path d="M9116 4973 c-6 -14 -5 -15 5 -6 7 7 10 15 7 18 -3 3 -9 -2 -12 -12z"/>
<path d="M3396 4967 c3 -10 9 -15 12 -12 3 3 0 11 -7 18 -10 9 -11 8 -5 -6z"/>
<path d="M3500 4965 c-9 -10 -9 -15 -1 -15 6 0 11 4 11 9 0 5 8 12 18 14 14 4
14 5 1 6 -9 0 -22 -6 -29 -14z"/>
<path d="M3554 4936 c-3 -8 -1 -23 5 -33 9 -15 10 -13 5 10 -4 17 -2 27 6 27
6 0 8 -4 5 -10 -3 -5 5 -15 19 -21 14 -7 23 -16 19 -22 -4 -6 -1 -7 7 -2 10 6
10 11 -3 20 -9 7 -14 15 -10 19 4 4 -1 4 -10 0 -12 -4 -17 -2 -15 6 4 18 -21
24 -28 6z"/>
<path d="M9095 4941 c-3 -5 0 -13 6 -17 7 -4 9 -3 5 4 -3 5 0 13 6 15 9 4 10
6 1 6 -6 1 -14 -3 -18 -8z"/>
<path d="M9130 4939 c0 -5 5 -7 10 -4 6 3 10 8 10 11 0 2 -4 4 -10 4 -5 0 -10
-5 -10 -11z"/>
<path d="M3500 4936 c0 -2 7 -6 15 -10 8 -3 15 -1 15 4 0 6 -7 10 -15 10 -8 0
-15 -2 -15 -4z"/>
<path d="M9061 4918 c-9 -14 -9 -23 -2 -29 6 -5 9 -6 6 -3 -2 4 0 15 6 26 14
27 6 32 -10 6z"/>
<path d="M3454 4923 c3 -4 18 -8 32 -9 14 -2 24 0 20 3 -3 3 -17 7 -32 9 -14
1 -23 0 -20 -3z"/>
<path d="M3537 4893 c6 -16 5 -17 -13 -3 -15 11 -16 11 -7 0 7 -8 20 -15 28
-16 12 -2 13 2 5 17 -13 24 -22 25 -13 2z"/>
<path d="M3590 4870 c6 -11 16 -18 22 -14 7 5 9 -2 4 -22 -5 -24 -4 -26 5 -11
12 21 4 51 -11 42 -5 -3 -10 1 -10 9 0 9 -5 16 -10 16 -7 0 -7 -7 0 -20z"/>
<path d="M3635 4880 c-3 -5 -2 -10 4 -10 5 0 13 5 16 10 3 6 2 10 -4 10 -5 0
-13 -4 -16 -10z"/>
<path d="M3657 4863 c-10 -10 -8 -33 3 -33 5 0 7 8 4 18 -5 14 -3 14 10 -2 9
-11 16 -15 16 -9 0 14 -25 34 -33 26z"/>
<path d="M3768 4845 c4 -13 12 -26 17 -27 6 -1 19 -16 30 -33 21 -30 52 -42
48 -17 -2 6 2 12 8 12 7 0 9 -10 5 -27 -5 -23 -4 -25 5 -10 13 22 4 51 -14 44
-6 -2 -11 -10 -9 -16 3 -13 -14 -15 -23 -2 -3 5 5 17 17 25 12 9 18 16 14 16
-5 0 -18 -8 -29 -17 -19 -17 -20 -17 -14 0 4 10 3 16 -2 13 -14 -9 -21 20 -8
35 7 7 2 5 -10 -5 -23 -19 -23 -19 -23 2 0 11 -4 23 -9 26 -5 4 -6 -5 -3 -19z"/>
<path d="M3575 4840 c3 -5 8 -10 11 -10 2 0 4 5 4 10 0 6 -5 10 -11 10 -5 0
-7 -4 -4 -10z"/>
<path d="M3695 4820 c-3 -6 -3 -10 1 -10 4 0 -1 -7 -12 -16 -18 -14 -18 -15 4
-4 12 6 20 15 17 20 -3 5 3 8 14 7 14 -1 19 -8 18 -21 -1 -15 4 -20 22 -20 14
0 26 6 29 14 2 9 0 11 -5 5 -15 -19 -42 -14 -40 7 1 14 -5 22 -20 24 -12 2
-25 -1 -28 -6z"/>
<path d="M3828 4823 c7 -3 16 -2 19 1 4 3 -2 6 -13 5 -11 0 -14 -3 -6 -6z"/>
<path d="M3890 4800 c0 -5 5 -10 10 -10 6 0 10 5 10 10 0 6 -4 10 -10 10 -5 0
-10 -4 -10 -10z"/>
<path d="M8987 4789 c-9 -6 -15 -14 -12 -20 4 -5 -1 -9 -9 -9 -9 0 -16 -4 -16
-8 0 -4 8 -8 19 -8 11 0 18 6 16 16 -1 8 5 20 14 27 20 15 13 16 -12 2z"/>
<path d="M8911 4785 c1 -19 18 -51 18 -35 0 8 -4 22 -9 30 -5 8 -9 11 -9 5z"/>
<path d="M9028 4783 c7 -3 16 -2 19 1 4 3 -2 6 -13 5 -11 0 -14 -3 -6 -6z"/>
<path d="M3710 4759 c0 -5 5 -7 10 -4 6 3 10 8 10 11 0 2 -4 4 -10 4 -5 0 -10
-5 -10 -11z"/>
<path d="M3790 4755 c0 -8 4 -15 8 -15 5 0 9 7 9 15 0 8 -4 15 -9 15 -4 0 -8
-7 -8 -15z"/>
<path d="M3940 4760 c-18 -12 -2 -12 25 0 13 6 15 9 5 9 -8 0 -22 -4 -30 -9z"/>
<path d="M8874 4759 c-11 -18 14 -35 29 -20 10 11 9 13 -5 8 -20 -7 -25 9 -5
16 9 4 9 6 0 6 -6 1 -15 -4 -19 -10z"/>
<path d="M3980 4750 c-8 -5 -12 -12 -9 -15 4 -3 12 1 19 10 14 17 11 19 -10 5z"/>
<path d="M3897 4743 c-4 -3 -7 -11 -7 -17 0 -6 5 -5 12 2 6 6 9 14 7 17 -3 3
-9 2 -12 -2z"/>
<path d="M3916 4725 c-3 -8 -1 -15 4 -15 6 0 10 7 10 15 0 8 -2 15 -4 15 -2 0
-6 -7 -10 -15z"/>
<path d="M3956 4721 c3 -13 2 -21 -3 -18 -5 3 -17 -3 -26 -14 -9 -10 -12 -19
-7 -19 6 0 13 7 16 15 4 8 10 13 14 10 15 -9 22 14 10 32 -9 15 -10 14 -4 -6z"/>
<path d="M3830 4721 c0 -6 5 -13 12 -17 6 -4 8 -3 4 4 -3 5 0 13 6 15 8 3 6 6
-4 6 -10 1 -18 -3 -18 -8z"/>
<path d="M3990 4716 c0 -18 17 -29 30 -21 8 5 7 11 -1 21 -15 18 -29 18 -29 0z
m25 -6 c3 -5 1 -10 -4 -10 -6 0 -11 5 -11 10 0 6 2 10 4 10 3 0 8 -4 11 -10z"/>
<path d="M8860 4720 c8 -5 20 -10 25 -10 6 0 3 5 -5 10 -8 5 -19 10 -25 10 -5
0 -3 -5 5 -10z"/>
<path d="M8916 4719 c2 -4 -3 -10 -12 -13 -8 -3 -12 -10 -9 -16 10 -16 -11
-12 -25 5 -7 8 -22 15 -34 14 -20 -1 -20 -1 2 -7 13 -4 23 -10 23 -14 -1 -5 2
-8 7 -9 4 -1 15 -5 24 -10 13 -7 16 -5 13 10 -3 18 18 37 38 33 4 -1 7 2 7 7
0 6 -9 9 -19 8 -11 0 -18 -4 -15 -8z"/>
<path d="M3866 4703 c-6 -14 -5 -15 5 -6 7 7 10 15 7 18 -3 3 -9 -2 -12 -12z"/>
<path d="M4070 4705 c0 -5 5 -17 10 -25 5 -8 10 -10 10 -5 0 6 -5 17 -10 25
-5 8 -10 11 -10 5z"/>
<path d="M4115 4700 c3 -6 1 -10 -6 -10 -7 0 -10 -3 -6 -6 3 -3 13 -2 22 4 16
8 16 9 1 15 -10 4 -15 3 -11 -3z"/>
<path d="M4026 4684 c-11 -8 -15 -14 -9 -14 7 0 15 5 18 10 7 12 25 4 25 -11
0 -6 -4 -8 -9 -4 -6 3 -15 -5 -21 -17 -11 -22 -11 -22 5 -3 9 11 19 19 23 17
13 -6 13 15 0 26 -9 7 -18 6 -32 -4z"/>
<path d="M8737 4685 c-4 -9 -12 -13 -18 -9 -8 4 -9 3 -5 -5 6 -9 11 -9 22 0
11 9 14 9 14 -1 0 -8 3 -11 6 -7 3 3 2 13 -4 22 -8 16 -9 16 -15 0z"/>
<path d="M8790 4690 c-13 -8 -12 -10 3 -10 9 0 17 5 17 10 0 12 -1 12 -20 0z"/>
<path d="M3970 4686 c0 -2 7 -7 16 -10 8 -3 12 -2 9 4 -6 10 -25 14 -25 6z"/>
<path d="M8831 4673 c7 -12 15 -20 18 -17 3 2 -3 12 -13 22 -17 16 -18 16 -5
-5z"/>
<path d="M3958 4663 c7 -3 16 -2 19 1 4 3 -2 6 -13 5 -11 0 -14 -3 -6 -6z"/>
<path d="M4157 4663 c-12 -11 -8 -23 8 -23 8 0 14 -5 13 -11 -2 -6 3 -13 10
-14 7 -2 8 -1 2 2 -5 2 -8 9 -4 14 3 5 -2 12 -10 15 -9 3 -13 10 -10 15 6 11
0 12 -9 2z"/>
<path d="M8776 4658 c3 -5 15 -7 26 -5 14 4 18 2 14 -9 -4 -10 -2 -12 6 -8 7
5 9 2 6 -8 -4 -8 0 -15 7 -15 27 0 -10 50 -39 53 -16 2 -24 -1 -20 -8z"/>
<path d="M8549 4631 c-13 -11 -18 -20 -11 -21 6 0 12 5 12 11 0 5 4 8 9 5 5
-4 12 0 14 6 4 10 8 9 17 -2 9 -12 11 -12 8 -1 -6 23 -23 23 -49 2z"/>
<path d="M8855 4640 c-3 -6 1 -7 9 -4 18 7 21 14 7 14 -6 0 -13 -4 -16 -10z"/>
<path d="M4208 4633 c6 -2 9 -10 6 -15 -4 -7 -2 -8 5 -4 13 9 5 26 -12 25 -9
0 -8 -2 1 -6z"/>
<path d="M4075 4620 c3 -5 8 -10 11 -10 2 0 4 5 4 10 0 6 -5 10 -11 10 -5 0
-7 -4 -4 -10z"/>
<path d="M4134 4616 c-3 -9 -10 -13 -15 -10 -5 3 -8 0 -7 -8 2 -7 -3 -12 -10
-10 -8 1 -11 -2 -7 -7 7 -12 35 -3 35 11 0 5 4 6 10 3 6 -4 7 1 4 12 -5 16 -4
16 10 -1 9 -11 16 -15 16 -9 0 6 -7 16 -15 23 -12 10 -16 9 -21 -4z"/>
<path d="M8055 4620 c3 -5 8 -10 11 -10 2 0 4 5 4 10 0 6 -5 10 -11 10 -5 0
-7 -4 -4 -10z"/>
<path d="M8128 4614 c6 -12 9 -24 5 -27 -3 -4 2 -9 11 -13 9 -3 14 -9 12 -13
-3 -4 5 -8 17 -8 20 -2 20 -1 -3 15 -14 9 -26 24 -28 32 -2 8 -8 20 -14 25 -7
7 -7 3 0 -11z"/>
<path d="M8155 4620 c-3 -6 1 -13 9 -16 9 -3 13 -10 10 -16 -3 -5 3 -12 15
-15 11 -3 18 -9 15 -14 -3 -5 3 -6 13 -2 16 6 16 5 4 -10 -7 -9 -9 -17 -3 -17
5 0 13 7 16 16 4 10 -4 19 -25 28 -19 8 -27 16 -20 20 6 4 16 4 23 0 7 -4 8
-3 4 5 -4 6 -13 11 -19 10 -25 -3 -38 1 -32 11 3 6 4 10 1 10 -3 0 -8 -5 -11
-10z"/>
<path d="M8215 4620 c3 -5 8 -10 11 -10 2 0 4 5 4 10 0 6 -5 10 -11 10 -5 0
-7 -4 -4 -10z"/>
<path d="M8289 4614 c6 -12 8 -24 4 -27 -3 -4 2 -9 11 -13 16 -6 16 -8 0 -25
-10 -11 -12 -19 -6 -19 7 0 12 5 12 11 0 8 4 8 14 0 12 -10 17 -8 26 9 6 12 9
24 7 27 -3 2 -8 -5 -12 -16 -3 -12 -10 -19 -15 -16 -5 3 -7 12 -3 20 3 10 -1
15 -12 15 -9 0 -14 4 -11 9 3 4 -1 17 -10 27 -14 18 -15 18 -5 -2z"/>
<path d="M8344 4615 c11 -8 24 -15 30 -15 5 0 1 7 -10 15 -10 8 -23 14 -29 14
-5 0 -1 -6 9 -14z"/>
<path d="M8614 4616 c5 -16 2 -17 -21 -12 -27 5 -27 5 -5 -6 29 -15 54 4 33
25 -12 10 -13 9 -7 -7z"/>
<path d="M8758 4623 c23 -5 23 -5 5 -26 l-18 -22 22 19 c26 22 21 37 -10 35
-21 -2 -21 -2 1 -6z"/>
<path d="M8099 4610 c-1 -8 -1 -18 0 -22 2 -13 -17 -9 -22 5 -4 9 -6 9 -6 0
-1 -19 20 -26 35 -12 9 10 10 19 4 29 -9 13 -10 13 -11 0z"/>
<path d="M8259 4610 c-1 -8 -1 -18 0 -22 2 -13 -17 -9 -22 5 -4 9 -6 9 -6 0
-1 -19 20 -26 35 -12 9 10 10 19 4 29 -9 13 -10 13 -11 0z"/>
<path d="M8322 4604 c10 -10 20 -16 22 -13 3 3 -5 11 -17 18 -21 13 -21 12 -5
-5z"/>
<path d="M8466 4604 c-11 -8 -16 -14 -10 -14 13 0 39 18 34 24 -3 2 -14 -2
-24 -10z"/>
<path d="M8505 4601 c-3 -12 -11 -19 -16 -16 -5 4 -12 -1 -15 -9 -5 -14 -8
-14 -29 0 -25 16 -35 9 -31 -22 3 -22 45 -29 53 -8 3 8 9 11 14 8 5 -3 6 3 2
12 -4 11 -3 15 5 10 11 -7 38 31 29 41 -3 2 -8 -5 -12 -16z m-45 -49 c0 -18
-36 -9 -37 9 -2 16 1 17 18 9 10 -6 19 -14 19 -18z"/>
<path d="M8717 4613 c-4 -6 0 -13 8 -17 8 -3 17 0 21 6 4 6 3 8 -4 4 -5 -3
-12 -1 -14 6 -3 8 -6 9 -11 1z"/>
<path d="M8636 4595 c-9 -26 -7 -32 5 -12 6 10 9 21 6 23 -2 3 -7 -2 -11 -11z"/>
<path d="M4184 4586 c-19 -14 -18 -15 3 -13 12 0 20 4 17 8 -2 4 2 10 8 12 7
3 8 6 2 6 -5 1 -19 -5 -30 -13z"/>
<path d="M8380 4590 c-8 -5 -12 -11 -10 -14 3 -2 14 2 24 10 22 15 10 19 -14
4z"/>
<path d="M8556 4585 c10 -8 24 -14 29 -14 6 0 1 6 -9 14 -11 8 -24 15 -30 15
-5 0 -1 -7 10 -15z"/>
<path d="M4225 4567 c-4 -15 -11 -25 -15 -22 -5 3 -11 1 -14 -4 -4 -5 1 -8 11
-7 9 2 20 11 24 22 5 11 8 13 8 5 1 -8 4 -12 7 -8 3 3 1 14 -4 24 -9 16 -11
15 -17 -10z"/>
<path d="M8519 4578 c-1 -7 -1 -19 0 -27 2 -7 -2 -10 -8 -6 -6 3 -14 -1 -17
-9 -3 -9 -10 -14 -14 -11 -5 3 -11 1 -14 -4 -4 -5 1 -8 10 -7 8 1 19 8 23 15
5 7 12 12 17 12 5 -1 10 10 11 24 2 25 -6 37 -8 13z"/>
<path d="M8651 4572 c-7 -14 -6 -19 4 -19 7 0 11 7 7 15 -4 11 -1 13 8 7 9 -5
11 -4 6 3 -10 16 -14 15 -25 -6z"/>
<path d="M8700 4586 c0 -2 7 -7 16 -10 8 -3 12 -2 9 4 -6 10 -25 14 -25 6z"/>
<path d="M8260 4560 c-12 -7 -10 -9 8 -7 12 0 22 5 22 9 0 11 -12 10 -30 -2z"/>
<path d="M8385 4560 c-3 -5 -1 -10 4 -10 6 0 11 5 11 10 0 6 -2 10 -4 10 -3 0
-8 -4 -11 -10z"/>
<path d="M8550 4560 c8 -5 20 -10 25 -10 6 0 3 5 -5 10 -8 5 -19 10 -25 10 -5
0 -3 -5 5 -10z"/>
<path d="M8596 4554 c-8 -22 -8 -24 6 -24 6 0 8 3 5 7 -4 3 -2 12 4 20 7 8 8
13 1 13 -5 0 -13 -7 -16 -16z"/>
<path d="M8694 4555 c3 -23 12 -26 13 -5 1 11 -2 20 -7 20 -4 0 -7 -7 -6 -15z"/>
<path d="M4254 4535 c-3 -8 -4 -20 -1 -27 3 -7 6 -3 6 10 1 15 5 21 13 16 7
-4 8 -3 4 4 -10 16 -15 15 -22 -3z"/>
<path d="M8015 4540 c-3 -5 -3 -10 2 -10 4 0 2 -4 -5 -9 -11 -7 -11 -9 1 -14
10 -4 14 0 12 11 -1 10 7 20 19 24 21 6 21 6 -1 7 -12 1 -25 -3 -28 -9z"/>
<path d="M8097 4543 c-3 -5 0 -17 4 -28 9 -19 9 -19 5 2 -3 16 2 23 18 26 l21
4 -22 2 c-12 0 -24 -2 -26 -6z"/>
<path d="M8357 4535 c-4 -8 -3 -16 1 -19 4 -3 9 4 9 15 2 23 -3 25 -10 4z"/>
<path d="M8070 4529 c0 -5 -6 -7 -12 -3 -7 4 -9 3 -5 -1 13 -15 36 -14 30 1
-6 17 -13 18 -13 3z"/>
<path d="M8150 4529 c0 -5 -6 -7 -12 -3 -7 4 -10 3 -5 -1 13 -15 46 -13 40 2
-6 16 -23 17 -23 2z"/>
<path d="M8237 4527 c-3 -8 1 -14 8 -14 7 0 11 6 8 14 -3 7 -6 13 -8 13 -2 0
-5 -6 -8 -13z"/>
<path d="M8395 4520 c27 -12 43 -12 25 0 -8 5 -22 9 -30 9 -10 0 -8 -3 5 -9z"/>
<path d="M8530 4522 c0 -5 7 -9 15 -9 8 0 12 4 9 9 -3 4 -9 8 -15 8 -5 0 -9
-4 -9 -8z"/>
<path d="M4270 4499 c0 -5 5 -7 10 -4 6 3 10 8 10 11 0 2 -4 4 -10 4 -5 0 -10
-5 -10 -11z"/>
<path d="M4235 4480 c3 -5 8 -10 11 -10 2 0 4 5 4 10 0 6 -5 10 -11 10 -5 0
-7 -4 -4 -10z"/>
<path d="M1700 4225 c-7 -9 -8 -15 -2 -15 5 0 12 7 16 15 3 8 4 15 2 15 -2 0
-9 -7 -16 -15z"/>
<path d="M1860 4225 c-7 -9 -8 -15 -2 -15 5 0 12 7 16 15 3 8 4 15 2 15 -2 0
-9 -7 -16 -15z"/>
<path d="M1955 4229 c-4 -6 -5 -12 -2 -15 2 -3 7 2 10 11 7 17 1 20 -8 4z"/>
<path d="M5852 4232 c2 -8 6 -12 8 -10 3 1 20 -7 38 -20 17 -13 32 -19 32 -14
0 8 -50 36 -59 32 -2 -1 -8 4 -13 12 -8 11 -9 11 -6 0z"/>
<path d="M5912 4232 c2 -8 7 -12 12 -10 4 2 14 -8 21 -22 8 -14 14 -20 15 -14
0 5 -7 19 -15 30 -8 10 -15 15 -15 9 0 -5 -5 -3 -11 5 -7 10 -9 11 -7 2z"/>
<path d="M6270 4232 c0 -14 28 -23 36 -11 3 6 3 13 0 16 -3 4 -6 1 -6 -7 0
-10 -3 -10 -15 0 -9 7 -15 8 -15 2z"/>
<path d="M1779 4223 c-1 -5 -1 -11 0 -15 2 -12 -17 -10 -22 2 -3 6 -4 5 -3 -2
2 -7 9 -13 17 -13 8 0 13 6 12 13 -2 6 1 12 6 12 15 0 23 -18 11 -25 -16 -10
-32 -45 -20 -45 5 0 10 6 10 14 0 7 7 19 15 26 12 10 13 16 4 26 -12 15 -28
18 -30 7z"/>
<path d="M2095 4220 c-11 -18 7 -32 33 -25 22 5 24 4 13 -9 -9 -11 -10 -16 -2
-16 6 0 11 5 11 11 0 5 5 7 10 4 6 -3 10 -2 10 3 0 14 -25 22 -49 15 -17 -4
-20 -2 -15 11 7 18 -1 22 -11 6z"/>
<path d="M6010 4220 c0 -5 -8 -10 -17 -11 -15 0 -15 -2 2 -9 11 -4 30 -6 43
-3 13 3 22 0 22 -7 0 -6 -5 -8 -10 -5 -6 3 -13 -1 -16 -9 -5 -14 -9 -13 -30 1
-14 9 -27 13 -31 10 -3 -4 3 -10 13 -14 10 -3 22 -11 27 -17 5 -7 11 -6 20 5
6 9 17 17 22 17 25 4 8 27 -18 25 -24 -2 -27 0 -17 13 9 10 9 14 1 14 -6 0
-11 -4 -11 -10z"/>
<path d="M6070 4220 c0 -5 5 -10 10 -10 6 0 10 5 10 10 0 6 -4 10 -10 10 -5 0
-10 -4 -10 -10z"/>
<path d="M6211 4212 c-17 -31 -13 -40 5 -14 9 13 14 26 11 29 -3 2 -10 -4 -16
-15z"/>
<path d="M6320 4220 c0 -5 1 -11 2 -12 1 -2 -4 -13 -11 -26 -10 -19 -9 -25 5
-40 17 -16 18 -16 11 1 -4 11 -1 20 8 23 8 4 15 11 15 16 0 6 -7 5 -15 -2 -14
-12 -15 -9 -10 18 3 18 3 32 0 32 -3 0 -5 -4 -5 -10z"/>
<path d="M6405 4220 c3 -5 11 -10 16 -10 6 0 7 5 4 10 -3 6 -11 10 -16 10 -6
0 -7 -4 -4 -10z"/>
<path d="M1670 4211 c0 -10 19 -25 25 -20 1 2 -3 10 -11 17 -8 7 -14 8 -14 3z"/>
<path d="M1720 4205 c-2 -11 -2 -30 -1 -43 1 -12 -3 -21 -10 -20 -6 2 -14 -4
-16 -12 -4 -12 -3 -12 5 -2 5 8 13 14 18 13 5 0 8 11 7 25 -2 21 0 24 13 14
10 -9 14 -9 14 -1 0 6 -4 11 -9 11 -5 0 -12 8 -14 18 -4 15 -5 14 -7 -3z"/>
<path d="M1830 4211 c0 -10 19 -25 25 -20 1 2 -3 10 -11 17 -8 7 -14 8 -14 3z"/>
<path d="M1880 4214 c0 -6 7 -19 15 -30 8 -10 14 -14 14 -9 0 6 -6 19 -14 29
-8 11 -15 15 -15 10z"/>
<path d="M1910 4211 c0 -5 8 -12 17 -15 15 -6 15 -8 3 -16 -9 -6 -10 -10 -3
-10 20 0 24 18 7 34 -18 18 -24 20 -24 7z"/>
<path d="M6100 4205 c-13 -15 -4 -39 11 -30 5 4 9 2 9 -4 0 -5 -5 -12 -10 -14
-6 -3 -5 -4 2 -3 7 2 13 9 13 17 0 8 -6 13 -12 12 -14 -3 -17 9 -6 20 3 4 15
0 25 -10 10 -9 20 -14 22 -12 2 2 -6 12 -19 21 -20 15 -25 15 -35 3z"/>
<path d="M6441 4214 c-1 -5 5 -18 12 -29 11 -14 16 -15 22 -5 5 9 4 11 -3 6
-16 -10 -15 6 1 24 10 12 9 12 -5 2 -13 -10 -17 -10 -21 0 -3 7 -6 8 -6 2z"/>
<path d="M1557 4192 c-19 -21 -22 -42 -6 -42 5 0 7 5 4 11 -4 5 1 19 11 30 9
10 15 19 12 19 -3 0 -12 -8 -21 -18z"/>
<path d="M1631 4184 c-11 -15 -18 -30 -15 -35 3 -5 1 -9 -5 -9 -5 0 -12 6 -14
13 -4 9 -6 9 -6 -1 -1 -8 -6 -10 -13 -6 -8 4 -9 3 -5 -2 5 -5 22 -9 38 -10 22
-1 27 2 19 11 -7 9 -4 20 11 39 11 14 18 26 15 26 -2 0 -14 -12 -25 -26z"/>
<path d="M2070 4205 c0 -5 5 -17 10 -25 5 -8 10 -10 10 -5 0 6 -5 17 -10 25
-5 8 -10 11 -10 5z"/>
<path d="M2186 4202 c-2 -4 4 -8 14 -8 10 0 16 4 14 8 -3 4 -9 8 -14 8 -5 0
-11 -4 -14 -8z"/>
<path d="M3130 4201 c0 -6 4 -13 10 -16 6 -3 7 1 4 9 -7 18 -14 21 -14 7z"/>
<path d="M5830 4200 c0 -5 5 -10 10 -10 6 0 10 5 10 10 0 6 -4 10 -10 10 -5 0
-10 -4 -10 -10z"/>
<path d="M6240 4200 c-8 -5 -12 -11 -10 -14 3 -2 14 2 24 10 22 15 10 19 -14
4z"/>
<path d="M6381 4200 c-9 -5 -4 -7 13 -7 29 0 32 2 13 10 -8 3 -20 2 -26 -3z"/>
<path d="M2030 4190 c-13 -9 -13 -10 0 -11 8 -1 18 -1 23 0 9 1 9 -23 0 -32
-3 -4 -12 1 -20 11 -13 15 -13 15 -3 -5 12 -26 40 -21 40 7 0 25 -22 41 -40
30z"/>
<path d="M5784 4185 c-12 -8 -24 -11 -28 -8 -3 3 -6 1 -6 -6 0 -7 6 -11 14 -8
7 3 20 0 27 -6 8 -8 8 -5 -1 7 -14 18 -13 19 3 13 10 -4 16 -3 12 2 -3 5 1 12
7 14 7 3 8 6 3 6 -6 1 -20 -6 -31 -14z"/>
<path d="M5868 4193 c6 -2 10 -9 7 -14 -4 -5 2 -6 12 -2 16 6 17 5 4 -11 -14
-17 -15 -17 -28 0 -7 10 -13 13 -13 7 0 -6 6 -16 13 -22 11 -8 18 -6 31 8 17
18 17 20 -3 30 -11 6 -23 11 -28 10 -4 0 -2 -3 5 -6z"/>
<path d="M6267 4189 c-9 -6 -14 -15 -11 -21 5 -7 -2 -9 -22 -4 -24 5 -26 4
-11 -5 22 -13 51 -4 41 13 -5 8 -2 9 10 5 9 -4 15 -3 11 2 -3 5 1 12 7 14 7 3
9 6 3 6 -5 0 -18 -4 -28 -10z"/>
<path d="M1494 4178 c-8 -12 38 -54 69 -62 25 -6 17 1 -24 23 -34 18 -54 46
-25 35 9 -3 16 -4 16 -1 0 11 -30 15 -36 5z"/>
<path d="M1574 4179 c-3 -6 -3 -13 0 -16 3 -4 6 -1 6 5 0 6 7 9 15 6 8 -4 15
-4 15 -1 0 11 -30 16 -36 6z"/>
<path d="M1650 4171 c-7 -14 -7 -21 0 -21 5 0 10 7 10 16 0 8 5 12 10 9 6 -4
8 -16 4 -28 -6 -22 -6 -22 9 -2 9 11 15 20 14 20 -1 1 -10 6 -19 13 -14 11
-18 10 -28 -7z"/>
<path d="M1810 4171 c-6 -12 -7 -21 -1 -21 10 0 24 30 17 37 -2 3 -9 -5 -16
-16z"/>
<path d="M1876 4166 c5 -20 3 -27 -4 -22 -6 4 -16 -4 -22 -16 -10 -21 -10 -21
3 -6 8 10 17 15 20 11 12 -12 19 26 8 44 -9 15 -10 13 -5 -11z"/>
<path d="M6170 4186 c0 -2 7 -9 15 -16 13 -11 14 -10 9 4 -5 14 -24 23 -24 12z"/>
<path d="M6430 4181 c0 -6 4 -13 10 -16 6 -3 7 1 4 9 -7 18 -14 21 -14 7z"/>
<path d="M1980 4170 c-8 -5 -11 -13 -6 -17 5 -4 11 -2 13 5 3 6 9 10 14 6 5
-3 9 0 9 5 0 13 -10 14 -30 1z"/>
<path d="M2177 4173 c-10 -10 -8 -23 4 -23 5 0 8 4 4 9 -3 5 5 12 17 14 21 4
21 4 2 6 -11 0 -24 -2 -27 -6z"/>
<path d="M5819 4170 c-5 -29 -2 -33 18 -35 12 -1 20 2 17 7 -4 5 -13 7 -21 4
-11 -4 -13 -1 -8 14 4 11 4 20 1 20 -3 0 -7 -4 -7 -10z"/>
<path d="M6361 4171 c-1 -7 10 -24 24 -37 14 -13 25 -19 25 -14 0 5 -8 15 -18
22 -11 7 -21 20 -25 28 -4 12 -6 12 -6 1z"/>
<path d="M6390 4170 c0 -5 7 -10 15 -10 8 0 14 -6 13 -12 -4 -19 45 -16 49 2
3 9 1 11 -4 5 -11 -13 -47 -19 -39 -6 4 5 -3 15 -14 21 -13 7 -20 7 -20 0z"/>
<path d="M1836 4154 c-9 -24 -2 -26 12 -4 7 11 8 20 3 20 -5 0 -12 -7 -15 -16z"/>
<path d="M2110 4163 c14 -6 13 -24 -1 -20 -6 1 -14 -5 -16 -13 -4 -12 -3 -12
5 -2 5 8 13 13 18 13 14 -1 10 22 -4 25 -7 1 -8 0 -2 -3z"/>
<path d="M3136 4158 c3 -5 10 -6 15 -3 13 9 11 12 -6 12 -8 0 -12 -4 -9 -9z"/>
<path d="M5912 4154 c-12 -8 -22 -20 -22 -26 0 -7 6 -5 13 4 6 8 21 20 32 26
11 6 15 12 10 12 -6 0 -21 -7 -33 -16z"/>
<path d="M6137 4155 c-6 -15 10 -32 20 -21 4 3 1 6 -5 6 -6 0 -9 7 -6 15 4 8
4 15 1 15 -3 0 -7 -7 -10 -15z"/>
<path d="M1750 4151 c0 -10 19 -25 25 -20 1 2 -3 10 -11 17 -8 7 -14 8 -14 3z"/>
<path d="M1910 4150 c0 -5 7 -10 16 -10 9 0 12 -5 8 -12 -4 -7 -3 -8 4 -4 16
10 15 14 -8 26 -14 7 -20 7 -20 0z"/>
<path d="M2150 4154 c0 -6 7 -19 16 -30 14 -18 14 -18 3 6 -14 31 -19 36 -19
24z"/>
<path d="M6036 4145 c-18 -14 -18 -14 1 -12 11 0 20 7 20 14 0 7 -1 13 -1 13
-1 0 -9 -7 -20 -15z"/>
<path d="M1476 4142 c-3 -5 1 -9 9 -9 8 0 12 4 9 9 -3 4 -7 8 -9 8 -2 0 -6 -4
-9 -8z"/>
<path d="M4833 4135 c0 -8 4 -12 9 -9 5 3 6 10 3 15 -9 13 -12 11 -12 -6z"/>
<path d="M5735 4140 c-4 -6 -2 -17 4 -23 9 -9 10 -7 5 8 -7 18 -6 19 10 6 12
-10 20 -11 27 -4 8 8 7 13 -2 18 -8 5 -10 4 -5 -3 9 -15 -6 -16 -21 -1 -8 8
-13 7 -18 -1z"/>
<path d="M5936 4141 c-3 -5 2 -15 12 -22 15 -13 16 -12 3 4 -12 15 -11 17 7
17 16 0 20 -5 16 -17 -5 -15 -4 -15 4 -3 6 8 8 18 6 22 -7 11 -41 10 -48 -1z"/>
<path d="M6070 4140 c0 -5 5 -10 10 -10 6 0 10 5 10 10 0 6 -4 10 -10 10 -5 0
-10 -4 -10 -10z"/>
<path d="M6176 4141 c-3 -5 2 -15 12 -22 15 -13 16 -12 3 4 -12 15 -11 17 7
17 16 0 20 -5 16 -17 -5 -15 -4 -15 4 -3 6 8 8 18 6 22 -7 11 -41 10 -48 -1z"/>
<path d="M6270 4140 c0 -5 5 -10 10 -10 6 0 10 5 10 10 0 6 -4 10 -10 10 -5 0
-10 -4 -10 -10z"/>
<path d="M1987 4127 c-3 -8 5 -12 24 -12 15 -1 26 2 23 5 -3 3 -9 5 -12 5 -4
0 -12 4 -18 8 -7 4 -14 1 -17 -6z"/>
<path d="M1726 4122 c-3 -5 1 -9 9 -9 8 0 15 4 15 9 0 4 -4 8 -9 8 -6 0 -12
-4 -15 -8z"/>
<path d="M1886 4122 c-3 -5 1 -9 9 -9 8 0 15 4 15 9 0 4 -4 8 -9 8 -6 0 -12
-4 -15 -8z"/>
<path d="M2060 4126 c0 -2 8 -10 18 -17 15 -13 16 -12 3 4 -13 16 -21 21 -21
13z"/>
<path d="M2130 4120 c0 -5 5 -10 10 -10 6 0 10 5 10 10 0 6 -4 10 -10 10 -5 0
-10 -4 -10 -10z"/>
<path d="M5797 4115 c-4 -8 -3 -16 1 -19 4 -3 9 4 9 15 2 23 -3 25 -10 4z"/>
<path d="M5873 4111 c0 -11 5 -18 9 -15 4 3 5 11 1 19 -7 21 -12 19 -10 -4z"/>
<path d="M6097 4115 c-4 -8 -1 -17 5 -21 6 -4 8 -3 4 4 -3 6 2 15 11 21 16 9
16 10 2 11 -9 0 -19 -7 -22 -15z"/>
<path d="M6235 4121 c-3 -5 0 -13 6 -17 8 -5 9 -3 4 6 -6 10 -4 12 9 7 10 -4
15 -3 11 3 -8 13 -22 13 -30 1z"/>
<path d="M6357 4115 c-4 -8 -3 -16 1 -19 4 -3 9 4 9 15 2 23 -3 25 -10 4z"/>
<path d="M6467 4124 c-4 -4 -7 -12 -7 -18 0 -6 5 -4 10 4 9 13 11 13 21 0 9
-12 10 -12 7 -1 -5 17 -21 25 -31 15z"/>
<path d="M1464 4104 c-18 -14 -18 -15 4 -4 12 6 28 8 34 4 7 -4 8 -3 4 4 -10
16 -18 15 -42 -4z"/>
<path d="M1632 4111 c-11 -7 -11 -9 0 -14 9 -3 15 1 15 9 0 8 -1 14 -1 14 -1
0 -7 -4 -14 -9z"/>
<path d="M1795 4111 c-3 -5 -2 -12 3 -15 5 -3 9 1 9 9 0 17 -3 19 -12 6z"/>
<path d="M6035 4111 c-3 -5 -2 -12 3 -15 5 -3 9 1 9 9 0 17 -3 19 -12 6z"/>
<path d="M3130 4099 c0 -5 5 -7 10 -4 6 3 10 8 10 11 0 2 -4 4 -10 4 -5 0 -10
-5 -10 -11z"/>
<path d="M2010 4096 c0 -2 8 -10 18 -17 15 -13 16 -12 3 4 -13 16 -21 21 -21
13z"/>
<path d="M2210 4096 c0 -2 8 -10 18 -17 15 -13 16 -12 3 4 -13 16 -21 21 -21
13z"/>
<path d="M4806 4083 c-6 -14 -5 -15 5 -6 7 7 10 15 7 18 -3 3 -9 -2 -12 -12z"/>
<path d="M5833 4085 c0 -8 4 -12 9 -9 5 3 6 10 3 15 -9 13 -12 11 -12 -6z"/>
<path d="M6490 4081 c0 -6 4 -13 10 -16 6 -3 7 1 4 9 -7 18 -14 21 -14 7z"/>
<path d="M3216 4035 c-3 -9 1 -18 9 -21 8 -4 13 -9 10 -13 -2 -4 3 -8 12 -8
13 0 13 3 -4 16 -11 9 -18 22 -15 29 6 18 -5 15 -12 -3z"/>
<path d="M4771 4006 c-9 -10 -8 -15 2 -19 8 -3 13 3 13 14 0 23 0 23 -15 5z"/>
<path d="M1456 3982 c-3 -5 1 -9 9 -9 8 0 12 4 9 9 -3 4 -7 8 -9 8 -2 0 -6 -4
-9 -8z"/>
<path d="M3194 3974 c1 -7 6 -17 10 -21 4 -4 6 -1 4 7 -2 9 3 14 12 12 8 -2
11 0 7 4 -13 14 -35 12 -33 -2z"/>
<path d="M5700 3986 c0 -2 8 -10 18 -17 15 -13 16 -12 3 4 -13 16 -21 21 -21
13z"/>
<path d="M2267 3939 c7 -7 15 -10 18 -7 3 3 -2 9 -12 12 -14 6 -15 5 -6 -5z"/>
<path d="M4736 3941 c-3 -5 2 -15 12 -22 16 -13 16 -13 2 5 -14 18 -13 19 3
13 9 -3 17 -2 17 3 0 12 -27 13 -34 1z"/>
<path d="M3283 3920 c2 -21 7 -26 32 -26 16 -1 24 1 18 3 -7 3 -15 3 -19 1 -3
-2 -12 8 -19 22 l-13 25 1 -25z"/>
<path d="M1416 3922 c-3 -5 1 -9 9 -9 8 0 12 4 9 9 -3 4 -7 8 -9 8 -2 0 -6 -4
-9 -8z"/>
<path d="M4711 3914 c0 -11 3 -14 6 -6 3 7 2 16 -1 19 -3 4 -6 -2 -5 -13z"/>
<path d="M2266 3902 c-2 -4 4 -8 14 -8 10 0 16 4 14 8 -3 4 -9 8 -14 8 -5 0
-11 -4 -14 -8z"/>
<path d="M4734 3902 c3 -5 0 -13 -6 -15 -9 -4 -10 -6 -1 -6 17 -1 25 16 12 25
-7 4 -9 3 -5 -4z"/>
<path d="M3340 3880 c-9 -6 -10 -10 -3 -10 6 0 15 5 18 10 8 12 4 12 -15 0z"/>
<path d="M4695 3880 c3 -5 1 -11 -4 -11 -6 -1 -17 -2 -23 -3 -7 0 -14 -11 -16
-24 -2 -12 -8 -20 -13 -17 -5 4 -9 1 -9 -5 0 -18 24 -6 30 16 3 10 13 20 22
22 13 2 16 -2 11 -15 -3 -10 -3 -15 1 -12 12 11 17 59 6 59 -6 0 -8 -4 -5 -10z"/>
<path d="M3275 3860 c-3 -5 -1 -10 4 -10 6 0 11 5 11 10 0 6 -2 10 -4 10 -3 0
-8 -4 -11 -10z"/>
<path d="M3386 3851 c10 -10 21 -17 23 -15 6 6 -20 34 -32 34 -6 0 -2 -8 9
-19z"/>
<path d="M3316 3844 c-3 -8 -2 -13 2 -13 18 3 22 -2 13 -19 -7 -14 -6 -19 4
-19 8 0 11 7 7 16 -5 14 -3 14 11 2 25 -20 20 -5 -7 22 -19 19 -26 21 -30 11z"/>
<path d="M3350 3851 c0 -9 30 -24 36 -18 2 1 -6 8 -16 15 -11 7 -20 8 -20 3z"/>
<path d="M4708 3828 c-7 -17 15 -19 29 -3 4 4 3 5 -4 2 -6 -4 -13 -2 -15 5 -3
8 -6 6 -10 -4z"/>
<path d="M3415 3820 c-3 -5 -1 -10 4 -10 6 0 11 5 11 10 0 6 -2 10 -4 10 -3 0
-8 -4 -11 -10z"/>
<path d="M4674 3822 c3 -5 0 -12 -6 -15 -7 -2 -10 -7 -7 -11 3 -4 12 0 18 8 9
11 9 16 0 22 -7 4 -9 3 -5 -4z"/>
<path d="M3390 3805 c0 -8 4 -15 10 -15 5 0 7 7 4 15 -4 8 -8 15 -10 15 -2 0
-4 -7 -4 -15z"/>
<path d="M1379 3793 c-13 -16 -12 -17 4 -4 9 7 17 15 17 17 0 8 -8 3 -21 -13z"/>
<path d="M3430 3800 c-11 -7 -11 -10 -2 -10 7 0 10 -4 7 -10 -4 -6 1 -7 12 -3
16 6 16 5 4 -10 -8 -10 -12 -19 -10 -22 3 -2 10 5 17 16 10 16 10 20 -3 25 -8
3 -12 10 -9 15 7 11 3 11 -16 -1z"/>
<path d="M4575 3800 c-3 -5 -1 -10 4 -10 6 0 11 5 11 10 0 6 -2 10 -4 10 -3 0
-8 -4 -11 -10z"/>
<path d="M4610 3803 c14 -6 13 -24 -1 -20 -6 1 -14 -5 -16 -13 -4 -12 -3 -12
5 -2 5 8 13 13 18 13 14 -1 10 22 -4 25 -7 1 -8 0 -2 -3z"/>
<path d="M6550 3796 c0 -2 8 -10 18 -17 15 -13 16 -12 3 4 -13 16 -21 21 -21
13z"/>
<path d="M3359 3773 c-13 -17 -13 -17 5 -3 18 14 19 13 12 -5 -6 -16 -5 -18 5
-7 9 8 10 15 3 22 -8 8 -15 5 -25 -7z"/>
<path d="M4628 3768 c-10 -10 -14 -18 -9 -18 10 0 36 29 30 34 -2 1 -12 -6
-21 -16z"/>
<path d="M5639 3773 c-13 -16 -12 -17 4 -4 9 7 17 15 17 17 0 8 -8 3 -21 -13z"/>
<path d="M3401 3757 c-13 -21 -12 -21 5 -5 10 10 16 20 13 22 -3 3 -11 -5 -18
-17z"/>
<path d="M4556 3773 c6 -4 14 -15 17 -23 5 -11 6 -9 4 4 -1 11 -9 21 -17 23
-10 3 -11 2 -4 -4z"/>
<path d="M3547 3749 c7 -7 15 -10 18 -7 3 3 -2 9 -12 12 -14 6 -15 5 -6 -5z"/>
<path d="M3415 3741 c-6 -11 13 -26 22 -17 4 3 1 6 -6 6 -7 0 -9 5 -6 10 3 6
4 10 1 10 -3 0 -7 -4 -11 -9z"/>
<path d="M3519 3743 c0 -5 -3 -19 -5 -32 -2 -14 -2 -22 1 -19 8 8 17 58 10 58
-3 0 -5 -3 -6 -7z"/>
<path d="M4554 3726 c3 -16 8 -31 11 -35 3 -3 4 7 1 23 -3 16 -8 31 -11 35 -3
3 -4 -7 -1 -23z"/>
<path d="M4595 3740 c3 -6 1 -10 -4 -10 -6 0 -11 -4 -11 -8 0 -5 7 -9 15 -9 8
0 12 4 9 8 -2 4 1 9 8 11 7 3 5 7 -6 11 -10 4 -15 3 -11 -3z"/>
<path d="M4675 3740 c3 -5 8 -10 11 -10 2 0 4 5 4 10 0 6 -5 10 -11 10 -5 0
-7 -4 -4 -10z"/>
<path d="M3450 3720 c0 -5 5 -10 10 -10 6 0 10 5 10 10 0 6 -4 10 -10 10 -5 0
-10 -4 -10 -10z"/>
<path d="M3570 3720 c0 -5 5 -10 10 -10 6 0 10 5 10 10 0 6 -4 10 -10 10 -5 0
-10 -4 -10 -10z"/>
<path d="M4436 3713 c-6 -14 -5 -15 5 -6 7 7 10 15 7 18 -3 3 -9 -2 -12 -12z"/>
<path d="M3415 3700 c3 -5 8 -10 11 -10 2 0 4 5 4 10 0 6 -5 10 -11 10 -5 0
-7 -4 -4 -10z"/>
<path d="M3534 3695 c-9 -24 2 -42 25 -41 12 0 21 4 21 8 -2 34 -37 58 -46 33z
m31 -14 c16 -19 16 -20 -4 -18 -13 1 -21 8 -21 19 0 23 3 23 25 -1z"/>
<path d="M3610 3706 c0 -2 7 -9 15 -16 13 -11 14 -10 9 4 -5 14 -24 23 -24 12z"/>
<path d="M4459 3706 c-1 -3 -3 -10 -4 -16 -1 -5 -3 -14 -4 -20 0 -5 -6 -10
-12 -10 -6 0 -9 7 -5 15 3 8 1 15 -4 15 -14 0 -12 -27 2 -36 12 -8 40 24 32
37 -3 5 -1 9 5 9 5 0 12 -5 14 -10 3 -6 4 -5 3 2 -2 12 -25 24 -27 14z"/>
<path d="M3477 3689 c7 -7 15 -10 18 -7 3 3 -2 9 -12 12 -14 6 -15 5 -6 -5z"/>
<path d="M3590 3695 c0 -12 33 -34 53 -35 10 0 15 -5 12 -11 -4 -6 -14 -8 -24
-4 -12 5 -13 4 -4 -6 10 -10 15 -9 27 1 18 14 12 30 -11 30 -9 0 -25 7 -35 17
-10 9 -18 13 -18 8z"/>
<path d="M857 3679 c7 -7 15 -10 18 -7 3 3 -2 9 -12 12 -14 6 -15 5 -6 -5z"/>
<path d="M908 3678 c17 -17 15 -33 -3 -18 -10 9 -15 9 -15 1 0 -6 5 -11 10
-11 6 0 10 -6 10 -14 0 -21 20 -30 33 -16 9 10 8 12 -7 6 -15 -5 -17 -2 -13
15 7 25 -1 49 -16 49 -7 0 -7 -4 1 -12z"/>
<path d="M996 3674 c-9 -24 -2 -26 12 -4 7 11 8 20 3 20 -5 0 -12 -7 -15 -16z"/>
<path d="M1050 3679 c-13 -9 -12 -10 2 -5 18 5 51 -30 42 -46 -7 -11 22 -22
41 -14 13 4 14 10 5 26 -6 11 -15 20 -21 20 -6 0 -3 -7 5 -16 21 -20 20 -24
-6 -24 -12 0 -18 3 -15 6 7 7 -23 64 -33 64 -3 0 -12 -5 -20 -11z"/>
<path d="M1156 3674 c-9 -24 -2 -26 12 -4 7 11 8 20 3 20 -5 0 -12 -7 -15 -16z"/>
<path d="M1210 3679 c-13 -9 -13 -10 2 -6 18 6 38 -12 42 -39 2 -10 9 -20 17
-22 11 -3 11 -1 -1 7 -8 6 -11 11 -7 11 5 0 0 14 -10 30 -19 33 -22 34 -43 19z"/>
<path d="M1270 3680 c-8 -5 -10 -10 -5 -10 6 0 17 5 25 10 8 5 11 10 5 10 -5
0 -17 -5 -25 -10z"/>
<path d="M1332 3681 c-11 -7 -11 -9 0 -14 9 -3 15 1 15 9 0 8 -1 14 -1 14 -1
0 -7 -4 -14 -9z"/>
<path d="M2377 3675 c-8 -18 6 -27 29 -18 11 4 15 3 11 -4 -4 -6 2 -22 14 -34
l20 -24 -15 25 c-8 14 -16 30 -18 35 -2 6 -11 9 -20 8 -12 -2 -15 2 -12 12 4
8 4 15 1 15 -3 0 -7 -7 -10 -15z"/>
<path d="M2435 3680 c-3 -5 -1 -10 4 -10 6 0 11 5 11 10 0 6 -2 10 -4 10 -3 0
-8 -4 -11 -10z"/>
<path d="M2528 3683 c6 -2 12 -9 12 -14 0 -6 -9 -5 -22 1 -22 11 -22 11 -4 -4
12 -10 24 -12 29 -7 11 11 0 31 -16 30 -9 0 -9 -2 1 -6z"/>
<path d="M2580 3680 c0 -5 5 -10 11 -10 5 0 7 5 4 10 -3 6 -8 10 -11 10 -2 0
-4 -4 -4 -10z"/>
<path d="M2715 3680 c-3 -6 1 -7 9 -4 18 7 21 14 7 14 -6 0 -13 -4 -16 -10z"/>
<path d="M2796 3674 c-9 -24 -2 -26 12 -4 7 11 8 20 3 20 -5 0 -12 -7 -15 -16z"/>
<path d="M3650 3686 c0 -2 7 -7 16 -10 8 -3 12 -2 9 4 -6 10 -25 14 -25 6z"/>
<path d="M3693 3677 c-3 -6 -1 -7 4 -4 6 4 14 0 17 -9 3 -8 10 -12 16 -9 5 3
10 1 10 -4 0 -14 -15 -14 -43 0 -21 10 -22 10 -2 -6 23 -18 50 -16 50 5 0 8
-6 14 -14 12 -8 -2 -11 3 -8 11 6 16 -21 19 -30 4z"/>
<path d="M4507 3679 c7 -7 15 -10 18 -7 3 3 -2 9 -12 12 -14 6 -15 5 -6 -5z"/>
<path d="M5093 3675 c0 -7 10 -10 24 -7 13 2 23 6 23 7 0 1 -10 5 -23 7 -14 3
-24 0 -24 -7z"/>
<path d="M5156 3674 c-9 -24 -2 -26 12 -4 7 11 8 20 3 20 -5 0 -12 -7 -15 -16z"/>
<path d="M5210 3679 c-12 -8 -10 -9 8 -4 22 6 23 5 11 -17 -7 -12 -12 -26 -11
-30 3 -12 -16 -9 -21 2 -3 6 -4 5 -3 -2 3 -15 31 -18 31 -3 1 6 6 20 13 31 16
31 1 44 -28 23z"/>
<path d="M5277 3679 c7 -7 15 -10 18 -7 3 3 -2 9 -12 12 -14 6 -15 5 -6 -5z"/>
<path d="M5316 3674 c-9 -24 -2 -26 12 -4 7 11 8 20 3 20 -5 0 -12 -7 -15 -16z"/>
<path d="M5370 3679 c-13 -9 -12 -10 2 -5 18 5 51 -30 42 -46 -7 -11 22 -22
41 -14 13 4 14 10 5 26 -6 11 -15 20 -21 20 -6 0 -3 -7 5 -16 21 -20 20 -24
-6 -24 -12 0 -18 3 -15 6 7 7 -23 64 -33 64 -3 0 -12 -5 -20 -11z"/>
<path d="M5476 3674 c-9 -24 -2 -26 12 -4 7 11 8 20 3 20 -5 0 -12 -7 -15 -16z"/>
<path d="M5530 3679 c-13 -9 -12 -10 2 -5 10 3 22 -2 27 -12 12 -19 14 -12 5
12 -7 19 -14 20 -34 5z"/>
<path d="M6596 3673 c-6 -14 -5 -15 5 -6 7 7 10 15 7 18 -3 3 -9 -2 -12 -12z"/>
<path d="M6674 3679 c-8 -14 18 -31 30 -19 9 9 0 30 -14 30 -5 0 -12 -5 -16
-11z m26 -9 c0 -5 -2 -10 -4 -10 -3 0 -8 5 -11 10 -3 6 -1 10 4 10 6 0 11 -4
11 -10z"/>
<path d="M6740 3680 c0 -5 5 -10 11 -10 5 0 7 5 4 10 -3 6 -8 10 -11 10 -2 0
-4 -4 -4 -10z"/>
<path d="M6774 3673 c2 -9 8 -18 15 -19 6 -1 7 0 2 2 -6 3 -7 12 -4 20 3 8 1
14 -5 14 -6 0 -9 -8 -8 -17z"/>
<path d="M6920 3680 c0 -5 5 -10 11 -10 5 0 7 5 4 10 -3 6 -8 10 -11 10 -2 0
-4 -4 -4 -10z"/>
<path d="M6970 3671 c14 -27 23 -31 40 -20 13 7 13 9 0 10 -8 1 -18 1 -22 0
-5 0 -8 6 -8 14 0 8 -5 15 -10 15 -7 0 -7 -6 0 -19z"/>
<path d="M7034 3679 c-9 -16 2 -22 21 -11 15 8 16 10 1 15 -8 3 -18 2 -22 -4z"/>
<path d="M7555 3680 c-3 -5 -1 -10 4 -10 6 0 11 5 11 10 0 6 -2 10 -4 10 -3 0
-8 -4 -11 -10z"/>
<path d="M7648 3683 c6 -2 12 -9 12 -14 0 -6 -9 -5 -22 1 -22 11 -22 11 -4 -4
12 -10 24 -12 29 -7 11 11 0 31 -16 30 -9 0 -9 -2 1 -6z"/>
<path d="M7734 3673 c2 -9 8 -18 15 -19 6 -1 7 0 2 2 -6 3 -7 12 -4 20 3 8 1
14 -5 14 -6 0 -9 -8 -8 -17z"/>
<path d="M7807 3679 c7 -7 15 -10 18 -7 3 3 -2 9 -12 12 -14 6 -15 5 -6 -5z"/>
<path d="M7880 3680 c0 -5 5 -10 11 -10 5 0 7 5 4 10 -3 6 -8 10 -11 10 -2 0
-4 -4 -4 -10z"/>
<path d="M1108 3673 c6 -2 18 -2 25 0 6 3 1 5 -13 5 -14 0 -19 -2 -12 -5z"/>
<path d="M2463 3665 c-14 -10 -20 -22 -16 -31 4 -12 8 -13 14 -3 4 7 5 17 3
21 -3 4 2 8 10 8 9 0 16 5 16 10 0 13 -2 13 -27 -5z"/>
<path d="M4276 3652 l-19 -27 24 22 c12 12 21 24 18 27 -2 2 -13 -8 -23 -22z"/>
<path d="M5428 3673 c6 -2 18 -2 25 0 6 3 1 5 -13 5 -14 0 -19 -2 -12 -5z"/>
<path d="M5588 3673 c7 -3 16 -2 19 1 4 3 -2 6 -13 5 -11 0 -14 -3 -6 -6z"/>
<path d="M6636 3663 c-9 -22 5 -35 24 -22 12 9 12 10 -3 5 -15 -5 -17 -2 -12
14 8 24 0 27 -9 3z"/>
<path d="M6850 3673 c-8 -2 -21 -7 -29 -9 -12 -4 -12 -8 2 -21 14 -14 19 -15
29 -4 11 10 10 11 -3 6 -10 -4 -20 -2 -24 4 -3 7 2 11 14 11 11 0 23 5 26 10
3 6 5 10 3 9 -2 0 -10 -3 -18 -6z"/>
<path d="M7583 3665 c-14 -10 -20 -22 -16 -31 4 -12 8 -13 14 -3 4 7 5 17 3
21 -3 4 2 8 10 8 9 0 16 5 16 10 0 13 -2 13 -27 -5z"/>
<path d="M7700 3665 c-6 -8 -10 -22 -7 -32 4 -14 5 -13 6 5 1 14 5 20 12 17 6
-4 8 -14 4 -24 -5 -12 -4 -13 6 -4 9 9 9 16 1 26 -7 8 -9 17 -5 20 3 4 4 7 1
7 -3 0 -11 -7 -18 -15z"/>
<path d="M833 3663 c4 -3 1 -13 -6 -22 -11 -14 -10 -14 6 -2 20 15 22 31 5 31
-6 0 -8 -3 -5 -7z"/>
<path d="M1009 3649 c-6 -11 -8 -23 -5 -27 3 -3 6 0 6 7 0 7 4 9 10 6 6 -3 7
1 4 10 -5 11 -2 14 10 9 9 -3 16 -4 16 -1 0 16 -31 13 -41 -4z"/>
<path d="M1169 3649 c-6 -11 -8 -23 -5 -27 3 -3 6 0 6 7 0 7 4 9 10 6 6 -3 7
1 4 10 -5 11 -2 14 10 9 9 -3 16 -4 16 -1 0 16 -31 13 -41 -4z"/>
<path d="M1280 3660 c-13 -8 -13 -10 2 -10 9 0 20 5 23 10 8 13 -5 13 -25 0z"/>
<path d="M2557 3657 c-4 -10 -3 -16 2 -13 5 3 11 -4 14 -15 3 -12 10 -18 16
-14 7 3 11 -2 11 -14 0 -24 16 -36 26 -20 4 7 3 9 -4 5 -6 -4 -12 3 -14 16 -2
13 -7 21 -11 18 -5 -3 -14 8 -21 25 -10 25 -13 26 -19 12z"/>
<path d="M2720 3660 c-8 -5 -12 -11 -9 -14 3 -3 14 1 25 9 21 16 8 20 -16 5z"/>
<path d="M2815 3660 c-3 -5 -3 -14 0 -20 8 -12 32 -13 39 -1 4 5 -3 7 -14 4
-16 -4 -19 -2 -14 11 7 18 -1 22 -11 6z"/>
<path d="M3775 3660 c-8 -14 3 -30 21 -30 8 0 14 -4 14 -10 0 -5 5 -10 11 -10
8 0 8 5 -1 15 -15 18 1 20 18 3 9 -9 12 -9 12 0 0 7 -5 12 -11 12 -5 0 -7 5
-3 11 5 8 1 8 -14 0 -29 -15 -42 -14 -36 4 7 17 -1 20 -11 5z"/>
<path d="M4475 3660 c3 -5 -1 -11 -7 -14 -7 -2 -2 -3 12 -2 29 3 34 18 7 22
-9 1 -15 -1 -12 -6z"/>
<path d="M4553 3653 c0 -10 4 -10 16 -1 9 7 18 13 20 15 2 1 -5 1 -16 0 -11 0
-20 -7 -20 -14z"/>
<path d="M5169 3649 c-6 -11 -8 -23 -6 -26 3 -2 8 5 12 16 4 12 12 18 21 14 7
-3 14 -3 14 0 0 16 -31 13 -41 -4z"/>
<path d="M5249 3649 c-6 -11 -8 -23 -5 -27 3 -3 6 0 6 7 0 7 4 9 10 6 6 -3 7
1 4 10 -4 11 -2 14 9 9 26 -10 29 -34 4 -35 -12 0 -16 -3 -9 -6 7 -3 19 -2 28
1 11 4 12 10 5 25 -16 29 -39 33 -52 10z"/>
<path d="M5329 3649 c-6 -11 -8 -23 -5 -27 3 -3 6 0 6 7 0 7 4 9 10 6 6 -3 7
1 4 10 -5 11 -2 14 10 9 9 -3 16 -4 16 -1 0 16 -31 13 -41 -4z"/>
<path d="M5489 3649 c-6 -11 -8 -23 -5 -27 3 -3 6 0 6 7 0 7 4 9 10 6 6 -3 7
1 4 10 -5 11 -2 14 10 9 9 -3 16 -4 16 -1 0 16 -31 13 -41 -4z"/>
<path d="M6728 3645 c6 -32 17 -39 32 -19 10 12 11 17 1 27 -10 9 -11 8 -6 -4
4 -10 2 -20 -4 -24 -7 -3 -11 2 -11 14 0 11 -4 22 -9 25 -4 3 -6 -6 -3 -19z"/>
<path d="M6890 3659 c0 -5 -4 -7 -10 -4 -5 3 -10 2 -10 -3 0 -14 25 -22 49
-15 12 3 21 1 21 -6 0 -6 -6 -10 -12 -8 -7 1 -14 -9 -15 -23 -2 -24 -2 -24 5
-2 4 13 12 23 17 23 6 -1 10 5 10 12 0 7 -11 11 -28 10 -24 -2 -27 0 -17 13 9
10 9 14 1 14 -6 0 -11 -5 -11 -11z"/>
<path d="M6950 3665 c0 -5 5 -17 10 -25 5 -8 10 -10 10 -5 0 6 -5 17 -10 25
-5 8 -10 11 -10 5z"/>
<path d="M7097 3663 c-8 -17 -1 -48 11 -45 15 3 16 -15 0 -20 -8 -3 -7 -6 4
-10 11 -5 15 0 14 15 -1 12 -7 21 -14 19 -15 -3 -12 29 3 40 6 5 6 8 -2 8 -6
0 -14 -3 -16 -7z"/>
<path d="M7779 3663 c-1 -5 -1 -11 0 -15 0 -5 -3 -8 -7 -8 -5 0 -16 -6 -27
-13 -14 -11 -15 -16 -5 -22 9 -6 11 -4 5 5 -6 10 -4 12 9 7 9 -4 15 -3 12 2
-3 5 1 12 10 15 8 3 12 10 9 16 -3 5 -2 10 4 10 21 0 19 -17 -5 -43 -14 -15
-21 -27 -16 -27 4 0 18 13 29 29 16 21 19 31 10 40 -13 13 -26 14 -28 4z"/>
<path d="M7864 3655 c11 -8 24 -15 30 -15 5 0 1 7 -10 15 -10 8 -23 14 -29 14
-5 0 -1 -6 9 -14z"/>
<path d="M871 3643 c7 -12 15 -20 18 -17 3 2 -3 12 -13 22 -17 16 -18 16 -5
-5z"/>
<path d="M1060 3653 c0 -7 0 -16 1 -20 0 -5 -10 -10 -22 -13 -24 -6 -39 -30
-19 -30 6 0 8 5 5 10 -3 6 3 10 13 10 26 0 43 22 32 40 -7 10 -10 11 -10 3z"/>
<path d="M1219 3650 c-1 -8 -1 -18 0 -22 0 -5 -8 -8 -18 -8 -11 0 -23 -5 -26
-10 -4 -6 -11 -8 -16 -5 -5 4 -9 1 -9 -4 0 -14 17 -14 25 -1 3 6 14 10 24 10
26 0 42 22 31 40 -9 13 -10 13 -11 0z"/>
<path d="M1307 3637 c-10 -16 -12 -28 -6 -38 8 -12 9 -12 7 1 -1 8 3 25 10 38
17 29 9 28 -11 -1z"/>
<path d="M2618 3632 c13 -12 28 -20 33 -17 5 4 9 2 9 -4 0 -5 -5 -12 -10 -14
-6 -3 -5 -4 2 -3 20 4 15 29 -5 32 -10 1 -26 8 -36 16 -9 7 -6 3 7 -10z"/>
<path d="M2748 3644 c-8 -8 -24 -17 -34 -18 -21 -3 -26 -28 -6 -32 7 -1 8 0 2
3 -5 2 -10 9 -10 14 0 6 4 8 9 5 5 -3 20 3 33 14 24 18 38 18 38 -2 0 -4 -6
-7 -12 -5 -7 1 -14 -9 -15 -23 -2 -24 -2 -24 5 -2 4 13 11 23 17 22 15 -2 17
16 2 28 -10 9 -17 8 -29 -4z"/>
<path d="M3516 3647 c3 -10 9 -15 12 -12 3 3 0 11 -7 18 -10 9 -11 8 -5 -6z"/>
<path d="M3595 3650 c-3 -5 -1 -10 4 -10 6 0 11 5 11 10 0 6 -2 10 -4 10 -3 0
-8 -4 -11 -10z"/>
<path d="M4231 3643 c7 -12 15 -20 18 -17 3 2 -3 12 -13 22 -17 16 -18 16 -5
-5z"/>
<path d="M4521 3637 c-13 -21 -12 -21 5 -5 10 10 16 20 13 22 -3 3 -11 -5 -18
-17z"/>
<path d="M5117 3649 c7 -7 15 -10 18 -7 3 3 -2 9 -12 12 -14 6 -15 5 -6 -5z"/>
<path d="M5379 3650 c-1 -8 -1 -18 0 -22 0 -5 -8 -8 -18 -8 -11 0 -23 -5 -26
-10 -4 -6 -11 -8 -16 -5 -5 4 -9 1 -9 -4 0 -14 17 -14 25 -1 3 6 14 10 24 10
26 0 42 22 31 40 -9 13 -10 13 -11 0z"/>
<path d="M5539 3649 c-1 -8 -1 -17 0 -21 0 -5 -8 -8 -18 -8 -11 0 -23 -5 -26
-10 -4 -6 -12 -7 -18 -4 -7 4 -9 4 -5 -1 4 -4 0 -15 -10 -23 -15 -12 -14 -12
8 0 28 16 70 3 62 -20 -6 -18 5 -15 12 3 4 11 -3 19 -22 27 -19 7 -22 12 -12
15 8 3 22 7 30 10 8 4 19 5 24 4 5 -1 3 6 -4 16 -8 10 -16 20 -17 22 -2 2 -4
-2 -4 -10z"/>
<path d="M5590 3650 c-9 -6 -10 -10 -3 -10 6 0 15 5 18 10 8 12 4 12 -15 0z"/>
<path d="M7070 3651 c0 -7 -4 -9 -10 -6 -6 4 -7 -1 -3 -11 4 -12 3 -15 -5 -10
-7 4 -15 1 -18 -8 -3 -9 -10 -13 -15 -10 -5 3 -9 0 -9 -5 0 -16 20 -13 26 4 4
8 10 13 15 10 9 -6 33 34 25 43 -3 3 -6 0 -6 -7z"/>
<path d="M7453 3645 c0 -8 3 -13 6 -13 3 1 14 -2 23 -6 16 -7 16 -10 2 -31
-14 -21 -14 -23 0 -21 9 1 19 6 23 11 4 4 2 5 -4 1 -15 -9 -17 6 -3 20 7 7 1
17 -18 31 -20 15 -29 17 -29 8z"/>
<path d="M7830 3651 c0 -9 30 -24 36 -18 2 1 -6 8 -16 15 -11 7 -20 8 -20 3z"/>
<path d="M796 3641 c-3 -5 2 -15 12 -22 15 -12 16 -12 5 2 -7 9 -10 19 -6 22
3 4 4 7 0 7 -3 0 -8 -4 -11 -9z"/>
<path d="M2346 3642 c-2 -4 4 -8 14 -8 10 0 16 4 14 8 -3 4 -9 8 -14 8 -5 0
-11 -4 -14 -8z"/>
<path d="M2479 3633 c-13 -17 -13 -17 6 -3 11 8 22 16 24 17 2 2 0 3 -6 3 -6
0 -17 -8 -24 -17z"/>
<path d="M2870 3646 c0 -2 7 -7 16 -10 8 -3 12 -2 9 4 -6 10 -25 14 -25 6z"/>
<path d="M3935 3640 c-3 -5 -3 -10 1 -10 4 0 -1 -7 -12 -15 -17 -14 -17 -16
-3 -27 9 -7 16 -16 17 -21 0 -4 3 -13 6 -20 2 -6 4 -2 2 11 -1 13 -9 28 -17
33 -12 8 -12 10 0 18 8 5 16 17 17 25 3 18 -2 21 -11 6z"/>
<path d="M4008 3642 c8 -5 13 -13 13 -18 -1 -5 5 -9 11 -9 7 0 13 8 14 18 1
12 1 13 -3 2 -5 -17 -24 -21 -20 -4 1 6 -5 14 -13 16 -12 4 -12 3 -2 -5z"/>
<path d="M4106 3637 c3 -10 9 -15 12 -12 3 3 0 11 -7 18 -10 9 -11 8 -5 -6z"/>
<path d="M4152 3636 c7 -8 15 -12 17 -11 5 6 -10 25 -20 25 -5 0 -4 -6 3 -14z"/>
<path d="M4184 3638 c-4 -7 -3 -8 4 -4 7 4 18 4 24 0 9 -6 5 -10 -11 -14 -25
-6 -42 -30 -21 -30 6 0 8 5 5 10 -3 6 2 10 13 10 26 0 34 11 21 27 -14 16 -26
17 -35 1z"/>
<path d="M4299 3643 c-1 -4 -1 -11 -1 -14 1 -4 -10 -10 -24 -13 -27 -7 -28
-32 0 -30 9 1 16 -2 16 -7 0 -5 5 -9 11 -9 8 0 8 4 -1 14 -6 8 -18 12 -26 9
-8 -3 -14 -2 -14 1 0 4 12 11 26 16 14 6 22 14 19 20 -3 5 3 10 14 10 12 0 20
-6 19 -12 -2 -7 8 -14 22 -15 24 -2 24 -2 2 5 -13 4 -22 12 -20 17 2 6 -7 11
-19 13 -13 2 -24 0 -24 -5z"/>
<path d="M4395 3639 c-11 -16 -1 -19 13 -3 7 8 8 14 3 14 -5 0 -13 -5 -16 -11z"/>
<path d="M5090 3640 c0 -5 5 -10 11 -10 5 0 7 5 4 10 -3 6 -8 10 -11 10 -2 0
-4 -4 -4 -10z"/>
<path d="M7023 3639 c-6 -6 -19 -12 -29 -13 -12 -2 -20 -12 -21 -27 -1 -23 -1
-23 4 -1 2 12 8 20 13 17 4 -3 19 4 31 15 13 11 22 19 19 20 -4 0 -11 -5 -17
-11z"/>
<path d="M7126 3638 c3 -4 9 -8 15 -8 5 0 9 4 9 8 0 5 -7 9 -15 9 -8 0 -12 -4
-9 -9z"/>
<path d="M7491 3647 c2 -1 13 -9 24 -17 19 -14 19 -14 6 3 -7 9 -18 17 -24 17
-6 0 -8 -1 -6 -3z"/>
<path d="M7599 3633 c-13 -17 -13 -17 6 -3 11 8 22 16 24 17 2 2 0 3 -6 3 -6
0 -17 -8 -24 -17z"/>
<path d="M853 3633 c4 -6 0 -13 -8 -17 -20 -7 -19 -22 3 -31 13 -5 14 -4 5 6
-10 10 -9 15 4 24 13 10 13 14 3 20 -8 5 -11 4 -7 -2z"/>
<path d="M2507 3628 c-14 -12 -14 -15 -2 -32 8 -11 15 -15 15 -10 0 6 -6 16
-12 23 -11 11 -10 13 5 8 10 -4 16 -3 12 2 -3 5 1 12 7 14 7 3 8 6 2 6 -5 1
-18 -5 -27 -11z"/>
<path d="M3659 3624 c-9 -12 -10 -17 0 -27 10 -9 11 -8 6 5 -6 14 -2 16 19 12
31 -5 34 1 7 15 -14 8 -22 7 -32 -5z"/>
<path d="M4070 3630 c0 -5 5 -10 10 -10 6 0 10 5 10 10 0 6 -4 10 -10 10 -5 0
-10 -4 -10 -10z"/>
<path d="M4430 3631 c0 -7 -5 -9 -12 -5 -7 5 -8 3 -3 -5 5 -9 10 -10 18 -2 6
6 8 14 4 18 -4 3 -7 1 -7 -6z"/>
<path d="M6667 3628 c-14 -12 -14 -15 -2 -32 8 -11 15 -15 15 -10 0 6 -6 16
-12 23 -11 11 -10 13 5 8 10 -4 16 -3 12 2 -3 5 1 12 7 14 7 3 8 6 2 6 -5 1
-18 -5 -27 -11z"/>
<path d="M6782 3624 c-23 -16 -29 -39 -13 -49 5 -3 13 0 17 6 4 8 3 9 -4 5 -7
-4 -12 -1 -12 9 0 10 5 13 12 9 6 -4 8 -3 4 4 -4 7 1 10 14 9 22 -1 27 -13 8
-20 -10 -4 -10 -6 -1 -6 19 -2 26 20 11 35 -12 12 -17 12 -36 -2z"/>
<path d="M7625 3627 c-12 -10 -14 -16 -7 -21 7 -4 12 -12 12 -17 0 -6 -5 -7
-12 -3 -7 5 -8 3 -3 -5 5 -9 10 -10 18 -2 7 7 6 15 -4 27 -12 16 -12 17 4 11
10 -4 16 -3 12 2 -3 5 1 12 7 14 7 3 8 6 2 6 -5 1 -18 -5 -29 -12z"/>
<path d="M2545 3620 c-7 -12 2 -30 16 -30 5 0 9 5 9 11 0 5 -5 7 -12 3 -8 -5
-9 -2 -5 9 7 19 2 23 -8 7z"/>
<path d="M2796 3615 c-9 -26 -7 -32 5 -12 6 10 9 21 6 23 -2 3 -7 -2 -11 -11z"/>
<path d="M2859 3628 c-6 -22 -5 -38 3 -38 6 0 7 7 4 16 -5 12 -2 15 9 10 9 -3
13 -2 10 4 -5 9 -24 14 -26 8z"/>
<path d="M3750 3620 c0 -5 5 -10 10 -10 6 0 10 5 10 10 0 6 -4 10 -10 10 -5 0
-10 -4 -10 -10z"/>
<path d="M4127 3615 c-8 -19 12 -30 26 -16 9 9 7 10 -8 5 -18 -7 -18 -6 -6 9
7 9 9 17 3 17 -5 0 -12 -7 -15 -15z"/>
<path d="M5115 3620 c-19 -8 -19 -9 2 -9 12 -1 25 4 28 9 7 12 -2 12 -30 0z"/>
<path d="M6707 3616 c-3 -8 -2 -18 4 -22 16 -9 22 2 11 21 -8 15 -10 16 -15 1z"/>
<path d="M6855 3620 c-8 -13 3 -30 18 -29 9 0 9 2 0 6 -7 2 -13 9 -13 14 0 6
8 5 20 -1 11 -6 20 -8 20 -6 0 12 -39 26 -45 16z"/>
<path d="M7665 3620 c-7 -12 2 -30 16 -30 5 0 9 5 9 11 0 5 -5 7 -12 3 -8 -5
-9 -2 -5 9 7 19 2 23 -8 7z"/>
<path d="M7814 3619 c-3 -6 -2 -15 4 -21 12 -12 32 -2 31 15 0 9 -2 9 -6 0 -2
-7 -9 -13 -14 -13 -4 0 -6 7 -3 15 7 17 -2 20 -12 4z"/>
<path d="M7890 3625 c0 -10 30 -37 30 -28 0 4 5 1 10 -7 5 -8 10 -10 10 -4 0
7 -11 19 -25 28 -14 9 -25 14 -25 11z"/>
<path d="M3980 3616 c0 -2 7 -7 16 -10 8 -3 12 -2 9 4 -6 10 -25 14 -25 6z"/>
<path d="M7872 3600 c0 -14 2 -19 5 -12 2 6 2 18 0 25 -3 6 -5 1 -5 -13z"/>
<path d="M890 3600 c0 -5 5 -10 10 -10 6 0 10 5 10 10 0 6 -4 10 -10 10 -5 0
-10 -4 -10 -10z"/>
<path d="M980 3600 c-9 -6 -10 -10 -3 -10 6 0 15 5 18 10 8 12 4 12 -15 0z"/>
<path d="M1070 3600 c0 -6 7 -13 15 -16 13 -5 13 -9 3 -23 -12 -14 -11 -15 5
-2 17 13 17 16 3 26 -9 7 -13 15 -9 18 3 4 1 7 -5 7 -7 0 -12 -5 -12 -10z"/>
<path d="M1222 3602 c-8 -6 -2 -9 18 -9 20 0 26 3 18 9 -7 4 -15 8 -18 8 -3 0
-11 -4 -18 -8z"/>
<path d="M2400 3600 c0 -5 5 -10 10 -10 6 0 10 5 10 10 0 6 -4 10 -10 10 -5 0
-10 -4 -10 -10z"/>
<path d="M2460 3600 c0 -5 5 -10 10 -10 6 0 10 5 10 10 0 6 -4 10 -10 10 -5 0
-10 -4 -10 -10z"/>
<path d="M2815 3599 c-11 -16 -1 -19 13 -3 7 8 8 14 3 14 -5 0 -13 -5 -16 -11z"/>
<path d="M3732 3596 c7 -8 15 -12 17 -11 5 6 -10 25 -20 25 -5 0 -4 -6 3 -14z"/>
<path d="M3790 3603 c5 -2 10 -9 10 -14 0 -6 -5 -7 -10 -4 -6 3 -13 -1 -16 -9
-3 -9 -10 -14 -14 -11 -11 7 -6 -22 5 -32 4 -4 6 -3 2 2 -6 11 20 51 31 48 4
-2 7 2 7 9 0 6 -6 12 -13 14 -7 1 -8 0 -2 -3z"/>
<path d="M3950 3598 c0 -6 3 -9 6 -5 4 3 20 -1 36 -9 17 -9 32 -13 35 -10 3 3
-12 12 -32 20 -45 19 -45 19 -45 4z"/>
<path d="M4050 3600 c0 -5 5 -10 10 -10 6 0 10 5 10 10 0 6 -4 10 -10 10 -5 0
-10 -4 -10 -10z"/>
<path d="M4085 3600 c-3 -6 1 -7 9 -4 18 7 21 14 7 14 -6 0 -13 -4 -16 -10z"/>
<path d="M4222 3590 c-7 -11 -8 -20 -3 -20 9 0 24 30 18 36 -1 2 -8 -6 -15
-16z"/>
<path d="M4310 3600 c0 -5 5 -10 10 -10 6 0 10 5 10 10 0 6 -4 10 -10 10 -5 0
-10 -4 -10 -10z"/>
<path d="M4390 3602 c0 -5 7 -9 15 -9 8 0 12 4 9 9 -3 4 -9 8 -15 8 -5 0 -9
-4 -9 -8z"/>
<path d="M4435 3599 c-3 -4 2 -6 10 -5 21 3 28 13 10 13 -9 0 -18 -4 -20 -8z"/>
<path d="M5067 3599 c7 -7 15 -10 18 -7 3 3 -2 9 -12 12 -14 6 -15 5 -6 -5z"/>
<path d="M5140 3600 c-9 -6 -10 -10 -3 -10 6 0 15 5 18 10 8 12 4 12 -15 0z"/>
<path d="M5170 3600 c0 -5 5 -10 10 -10 6 0 10 5 10 10 0 6 -4 10 -10 10 -5 0
-10 -4 -10 -10z"/>
<path d="M5230 3600 c0 -6 7 -13 15 -16 13 -5 13 -9 3 -23 -12 -14 -11 -15 5
-2 17 13 17 16 3 26 -9 7 -13 15 -9 18 3 4 1 7 -5 7 -7 0 -12 -5 -12 -10z"/>
<path d="M5382 3602 c-8 -6 -2 -9 18 -9 20 0 26 3 18 9 -7 4 -15 8 -18 8 -3 0
-11 -4 -18 -8z"/>
<path d="M5550 3600 c0 -5 5 -10 10 -10 6 0 10 5 10 10 0 6 -4 10 -10 10 -5 0
-10 -4 -10 -10z"/>
<path d="M7065 3599 c-11 -16 -1 -19 13 -3 7 8 8 14 3 14 -5 0 -13 -5 -16 -11z"/>
<path d="M7520 3600 c0 -5 5 -10 10 -10 6 0 10 5 10 10 0 6 -4 10 -10 10 -5 0
-10 -4 -10 -10z"/>
<path d="M7580 3600 c0 -5 5 -10 10 -10 6 0 10 5 10 10 0 6 -4 10 -10 10 -5 0
-10 -4 -10 -10z"/>
<path d="M7717 3591 c14 -17 33 -20 33 -5 0 3 -4 3 -9 0 -5 -3 -11 1 -15 9 -3
8 -10 15 -16 15 -5 0 -2 -9 7 -19z"/>
<path d="M1121 3588 c9 -7 14 -18 12 -25 -2 -6 0 -14 5 -17 5 -3 8 4 7 16 -1
11 -10 25 -21 30 -17 8 -17 8 -3 -4z"/>
<path d="M1276 3584 c-4 -9 -4 -19 -1 -22 3 -3 5 0 5 7 0 7 4 9 10 6 6 -3 7 1
4 9 -8 20 -10 20 -18 0z"/>
<path d="M3680 3591 c0 -6 4 -13 10 -16 6 -3 7 1 4 9 -7 18 -14 21 -14 7z"/>
<path d="M3830 3594 c0 -5 6 -18 13 -28 12 -16 14 -16 26 -2 14 16 36 23 27 8
-3 -5 4 -16 15 -25 10 -9 19 -12 19 -7 0 6 -7 13 -15 16 -8 4 -13 10 -10 14
11 17 -17 22 -33 6 -15 -15 -17 -14 -29 6 -7 13 -12 18 -13 12z"/>
<path d="M5281 3588 c9 -7 14 -18 12 -25 -2 -6 0 -14 5 -17 5 -3 8 4 7 16 -1
11 -10 25 -21 30 -17 8 -17 8 -3 -4z"/>
<path d="M7953 3585 c0 -8 4 -12 9 -9 5 3 6 10 3 15 -9 13 -12 11 -12 -6z"/>
<path d="M1026 3563 l-17 -28 20 23 c22 25 33 29 25 8 -3 -8 -1 -16 4 -20 5
-3 8 5 7 16 -2 32 -20 32 -39 1z"/>
<path d="M1180 3586 c0 -2 7 -7 16 -10 8 -3 12 -2 9 4 -6 10 -25 14 -25 6z"/>
<path d="M1330 3579 c0 -5 5 -7 10 -4 6 3 10 8 10 11 0 2 -4 4 -10 4 -5 0 -10
-5 -10 -11z"/>
<path d="M2430 3580 c0 -5 5 -10 10 -10 6 0 10 5 10 10 0 6 -4 10 -10 10 -5 0
-10 -4 -10 -10z"/>
<path d="M2533 3583 c4 -6 2 -13 -5 -15 -8 -3 -6 -6 4 -10 17 -7 19 15 3 29
-4 4 -5 3 -2 -4z"/>
<path d="M2579 3588 c-3 -6 -6 -48 -4 -48 1 0 9 8 16 17 12 14 12 16 0 8 -11
-6 -13 -4 -8 8 5 13 1 25 -4 15z"/>
<path d="M2670 3580 c0 -5 5 -10 10 -10 6 0 10 5 10 10 0 6 -4 10 -10 10 -5 0
-10 -4 -10 -10z"/>
<path d="M2773 3583 c4 -6 2 -13 -5 -15 -8 -3 -6 -6 4 -10 17 -7 19 15 3 29
-4 4 -5 3 -2 -4z"/>
<path d="M2830 3580 c0 -6 7 -10 15 -10 8 0 15 2 15 4 0 2 -7 6 -15 10 -8 3
-15 1 -15 -4z"/>
<path d="M3715 3580 c-3 -5 -1 -10 4 -10 6 0 11 5 11 10 0 6 -2 10 -4 10 -3 0
-8 -4 -11 -10z"/>
<path d="M4094 3578 c-5 -8 -2 -9 11 -5 14 6 16 3 12 -14 -4 -16 -3 -19 5 -11
12 12 4 42 -11 42 -5 0 -13 -5 -17 -12z"/>
<path d="M4335 3580 c-3 -6 1 -7 10 -4 11 5 14 2 9 -12 -5 -15 -4 -16 4 -4 11
15 7 30 -8 30 -5 0 -12 -4 -15 -10z"/>
<path d="M5186 3563 l-17 -28 20 23 c22 25 33 29 25 8 -3 -8 -1 -16 4 -20 5
-3 8 5 7 16 -2 32 -20 32 -39 1z"/>
<path d="M5340 3586 c0 -2 7 -7 16 -10 8 -3 12 -2 9 4 -6 10 -25 14 -25 6z"/>
<path d="M6695 3583 c3 -3 0 -11 -5 -18 -7 -8 -5 -12 4 -12 14 0 16 22 3 32
-4 3 -5 2 -2 -2z"/>
<path d="M6739 3588 c-3 -6 -6 -48 -4 -48 1 0 9 8 16 17 12 14 12 16 0 8 -11
-6 -13 -4 -8 8 5 13 1 25 -4 15z"/>
<path d="M6830 3580 c0 -5 5 -10 10 -10 6 0 10 5 10 10 0 6 -4 10 -10 10 -5 0
-10 -4 -10 -10z"/>
<path d="M6933 3583 c4 -6 2 -13 -5 -15 -8 -3 -6 -6 4 -10 17 -7 19 15 3 29
-4 4 -5 3 -2 -4z"/>
<path d="M6990 3580 c0 -6 7 -10 15 -10 8 0 15 2 15 4 0 2 -7 6 -15 10 -8 3
-15 1 -15 -4z"/>
<path d="M7035 3580 c-3 -5 -1 -10 4 -10 6 0 11 5 11 10 0 6 -2 10 -4 10 -3 0
-8 -4 -11 -10z"/>
<path d="M7076 3573 c-4 -9 -3 -20 1 -24 4 -4 9 3 9 17 2 28 -1 31 -10 7z"/>
<path d="M7550 3580 c0 -5 5 -10 10 -10 6 0 10 5 10 10 0 6 -4 10 -10 10 -5 0
-10 -4 -10 -10z"/>
<path d="M7656 3576 c6 -15 4 -17 -6 -11 -9 6 -11 4 -5 -4 5 -9 10 -10 18 -2
8 8 7 14 -2 24 -10 10 -11 8 -5 -7z"/>
<path d="M7699 3588 c-3 -6 -6 -48 -4 -48 1 0 9 8 16 17 12 14 12 16 0 8 -11
-6 -13 -4 -8 8 5 13 1 25 -4 15z"/>
<path d="M7790 3580 c0 -5 5 -10 10 -10 6 0 10 5 10 10 0 6 -4 10 -10 10 -5 0
-10 -4 -10 -10z"/>
<path d="M7893 3583 c4 -6 2 -13 -5 -15 -8 -3 -6 -6 4 -10 17 -7 19 15 3 29
-4 4 -5 3 -2 -4z"/>
<path d="M906 3564 c-5 -14 -4 -15 9 -4 17 14 19 20 6 20 -5 0 -12 -7 -15 -16z"/>
<path d="M991 3564 c0 -11 3 -14 6 -6 3 7 2 16 -1 19 -3 4 -6 -2 -5 -13z"/>
<path d="M1226 3564 c-5 -14 -4 -15 9 -4 17 14 19 20 6 20 -5 0 -12 -7 -15
-16z"/>
<path d="M3961 3575 c0 -5 3 -16 8 -23 7 -11 9 -10 14 3 4 9 3 14 -2 10 -5 -3
-12 1 -14 7 -3 7 -6 9 -6 3z"/>
<path d="M4041 3575 c0 -5 3 -15 7 -22 5 -9 12 -6 21 10 13 20 13 21 -1 9 -13
-10 -17 -10 -21 0 -3 7 -6 9 -6 3z"/>
<path d="M4150 3570 c0 -5 5 -10 10 -10 6 0 10 5 10 10 0 6 -4 10 -10 10 -5 0
-10 -4 -10 -10z"/>
<path d="M4191 3564 c0 -11 3 -14 6 -6 3 7 2 16 -1 19 -3 4 -6 -2 -5 -13z"/>
<path d="M4236 3565 c-4 -11 -4 -16 0 -12 4 4 12 2 19 -3 8 -7 12 -5 12 5 0 8
-4 12 -8 9 -4 -2 -9 1 -11 8 -3 7 -7 4 -12 -7z"/>
<path d="M5151 3564 c0 -11 3 -14 6 -6 3 7 2 16 -1 19 -3 4 -6 -2 -5 -13z"/>
<path d="M5386 3564 c-5 -14 -4 -15 9 -4 17 14 19 20 6 20 -5 0 -12 -7 -15
-16z"/>
<path d="M7989 3563 c-13 -16 -12 -17 4 -4 16 13 21 21 13 21 -2 0 -10 -8 -17
-17z"/>
<path d="M2475 3561 c-3 -5 -2 -12 3 -15 5 -3 9 1 9 9 0 17 -3 19 -12 6z"/>
<path d="M2715 3561 c-3 -5 -2 -12 3 -15 5 -3 9 1 9 9 0 17 -3 19 -12 6z"/>
<path d="M5099 3553 c-13 -16 -12 -17 4 -4 16 13 21 21 13 21 -2 0 -10 -8 -17
-17z"/>
<path d="M5499 3553 c-13 -16 -12 -17 4 -4 9 7 17 15 17 17 0 8 -8 3 -21 -13z"/>
<path d="M6875 3561 c-3 -5 -2 -12 3 -15 5 -3 9 1 9 9 0 17 -3 19 -12 6z"/>
<path d="M7150 3563 c0 -6 8 -17 18 -24 16 -13 16 -13 2 6 -8 11 -16 22 -17
24 -2 2 -3 0 -3 -6z"/>
<path d="M7595 3561 c-3 -5 -2 -12 3 -15 5 -3 9 1 9 9 0 17 -3 19 -12 6z"/>
<path d="M7835 3561 c-3 -5 -2 -12 3 -15 5 -3 9 1 9 9 0 17 -3 19 -12 6z"/>
<path d="M869 3543 c-13 -16 -12 -17 4 -4 16 13 21 21 13 21 -2 0 -10 -8 -17
-17z"/>
<path d="M1189 3543 c-13 -16 -12 -17 4 -4 9 7 17 15 17 17 0 8 -8 3 -21 -13z"/>
<path d="M3995 3549 c-4 -6 -4 -13 -1 -16 3 -4 6 -1 6 5 0 7 5 12 11 12 5 0 7
-5 3 -12 -4 -7 -3 -8 5 -4 12 8 6 26 -9 26 -5 0 -12 -5 -15 -11z"/>
<path d="M4075 3549 c-11 -16 -1 -19 13 -3 7 8 8 14 3 14 -5 0 -13 -5 -16 -11z"/>
<path d="M5349 3543 c-13 -16 -12 -17 4 -4 9 7 17 15 17 17 0 8 -8 3 -21 -13z"/>
<path d="M3790 3540 c0 -5 7 -7 15 -4 8 4 15 8 15 10 0 2 -7 4 -15 4 -8 0 -15
-4 -15 -10z"/>
<path d="M3870 3540 c0 -5 5 -10 10 -10 6 0 10 5 10 10 0 6 -4 10 -10 10 -5 0
-10 -4 -10 -10z"/>
<path d="M4135 3541 c-6 -11 13 -26 22 -17 4 3 1 6 -6 6 -7 0 -9 5 -6 10 3 6
4 10 1 10 -3 0 -7 -4 -11 -9z"/>
<path d="M4310 3542 c0 -5 7 -9 15 -9 8 0 12 4 9 9 -3 4 -9 8 -15 8 -5 0 -9
-4 -9 -8z"/>
<path d="M3956 3518 c3 -5 10 -6 15 -3 13 9 11 12 -6 12 -8 0 -12 -4 -9 -9z"/>
<path d="M4090 3506 c0 -2 7 -7 16 -10 8 -3 12 -2 9 4 -6 10 -25 14 -25 6z"/>
</g>
</svg>
